<svg xmlns="http://www.w3.org/2000/svg" viewBox="0 0 500 500"><g id="freepik--background-complete--inject-166"><path d="M454.92,135.24H359.34s9.48-25.88,24.06-25.88,19.16,17.86,19.16,17.86,9.84-9.71,17.92-9.71,15.11,12.83,15.11,12.83S447,123.44,454.92,135.24Z" style="fill:#ebebeb"></path><path d="M371.46,71.09H326.8s10-14.46,17.84-14.46,10.19,9.64,10.19,9.64,5.55-4.5,10.69-3.69S371.46,71.09,371.46,71.09Z" style="fill:#ebebeb"></path><path d="M132.08,124h-87S57,97.39,69.74,95.73s18.84,19.76,18.84,19.76,8.22-7.57,14.69-7.57,11.45,10,11.45,10S127.65,111.06,132.08,124Z" style="fill:#ebebeb"></path><path d="M222.32,59.66H163.56s10.09-19.28,21-19.56,16.71,14.59,16.71,14.59S218.35,41,222.32,59.66Z" style="fill:#ebebeb"></path><path d="M255.08,113H215.41s6.82-13,14.21-13.19,11.28,9.84,11.28,9.84S252.4,100.39,255.08,113Z" style="fill:#ebebeb"></path><path d="M351,154.06H311.35s6.82-13,14.21-13.19,11.28,9.84,11.28,9.84S348.33,141.48,351,154.06Z" style="fill:#ebebeb"></path></g><g id="freepik--Shadows--inject-166"><ellipse cx="213.63" cy="459.48" rx="149.89" ry="22.37" style="fill:#ebebeb"></ellipse><ellipse cx="379.38" cy="445.86" rx="57.06" ry="14.41" style="fill:#ebebeb"></ellipse></g><g id="freepik--Wall--inject-166"><rect x="71.11" y="249.8" width="26.48" height="11.19" style="fill:#ebebeb"></rect><rect x="56.34" y="263.91" width="26.48" height="11.19" style="fill:#dbdbdb"></rect><rect x="85.88" y="263.91" width="26.48" height="11.19" style="fill:#ebebeb"></rect><rect x="236.76" y="290.95" width="26.48" height="11.19" style="fill:#dbdbdb"></rect><rect x="417.18" y="263.91" width="26.48" height="11.19" style="fill:#ebebeb"></rect><rect x="379.38" y="344.71" width="26.48" height="11.19" style="fill:#ebebeb"></rect><rect x="394.15" y="358.82" width="26.48" height="11.19" style="fill:#dbdbdb"></rect><rect x="179.69" y="383" width="26.48" height="11.19" transform="translate(385.85 777.19) rotate(180)" style="fill:#dbdbdb"></rect><rect x="194.46" y="368.89" width="26.48" height="11.19" transform="translate(415.4 748.97) rotate(180)" style="fill:#ebebeb"></rect><rect x="33.4" y="218.17" width="433.2" height="7.55" style="fill:#ebebeb"></rect><path d="M63.77,218.17a13.93,13.93,0,0,1,0,7.54,14.19,14.19,0,0,1,0-7.54Z" style="fill:#dbdbdb"></path><path d="M97.63,218.17a13.93,13.93,0,0,1,0,7.54,14.19,14.19,0,0,1,0-7.54Z" style="fill:#dbdbdb"></path><path d="M131.49,218.17a13.93,13.93,0,0,1,0,7.54,14.19,14.19,0,0,1,0-7.54Z" style="fill:#dbdbdb"></path><path d="M165.35,218.17a13.93,13.93,0,0,1,0,7.54,14.19,14.19,0,0,1,0-7.54Z" style="fill:#dbdbdb"></path><path d="M199.21,218.17a13.93,13.93,0,0,1,0,7.54,14.19,14.19,0,0,1,0-7.54Z" style="fill:#dbdbdb"></path><path d="M233.07,218.17a14.19,14.19,0,0,1,0,7.54,14.19,14.19,0,0,1,0-7.54Z" style="fill:#dbdbdb"></path><path d="M266.93,218.17a14.19,14.19,0,0,1,0,7.54,14.19,14.19,0,0,1,0-7.54Z" style="fill:#dbdbdb"></path><path d="M300.79,218.17a14.19,14.19,0,0,1,0,7.54,13.93,13.93,0,0,1,0-7.54Z" style="fill:#dbdbdb"></path><path d="M334.65,218.17a14.19,14.19,0,0,1,0,7.54,13.93,13.93,0,0,1,0-7.54Z" style="fill:#dbdbdb"></path><path d="M368.51,218.17a14.19,14.19,0,0,1,0,7.54,13.93,13.93,0,0,1,0-7.54Z" style="fill:#dbdbdb"></path><path d="M402.37,218.17a14.19,14.19,0,0,1,0,7.54,13.93,13.93,0,0,1,0-7.54Z" style="fill:#dbdbdb"></path><path d="M436.23,218.17a14.19,14.19,0,0,1,0,7.54,13.93,13.93,0,0,1,0-7.54Z" style="fill:#dbdbdb"></path></g><g id="freepik--Floor--inject-166"><polygon points="33.4 431.27 87.55 431.03 141.7 430.94 250 430.77 358.3 430.94 412.45 431.03 466.6 431.27 412.45 431.52 358.3 431.61 250 431.77 141.7 431.61 87.55 431.52 33.4 431.27" style="fill:#263238"></polygon></g><g id="freepik--character-1--inject-166"><path d="M192.61,121.29c-.66,25.28-3.77,36.58-7.82,54.2-2.9,12.59-22.47,37.38-35.48,49.48-5,4.63-28.07-12.38-26.59-19.64.9-4.36,33.73-34.73,36.45-41.59,3.59-9.07,12.19-29,20.7-45.37C185.06,108.41,193.08,103.28,192.61,121.29Z" style="fill:#d3766a"></path><path d="M136.11,234.64c1.81-1.14,2.43-.19,1.14,3.4s-9.42,16.74-4.59,19.19,16-16.26,17.71-22.41,2.24-16.68,2.24-16.68C149.7,221.34,141.9,228.43,136.11,234.64Z" style="fill:#d3766a"></path><circle cx="121.38" cy="374.49" r="7.91" transform="translate(-229.25 195.51) rotate(-45)" style="fill:#00318E"></circle><path d="M124.87,374.49a3.49,3.49,0,1,1-3.49-3.49A3.48,3.48,0,0,1,124.87,374.49Z" style="fill:#ebebeb"></path><circle cx="141.72" cy="268.66" r="7.91" style="fill:#00318E"></circle><circle cx="141.72" cy="268.66" r="3.49" style="fill:#ebebeb"></circle><path d="M95.69,401.51H94.18c-10.72,0-17.72-8.69-15.64-19.42l24.75-127.34c2.09-10.72,12.47-19.41,23.2-19.41H128c10.73,0,17.73,8.69,15.65,19.41L118.89,382.09C116.8,392.82,106.42,401.51,95.69,401.51Z" style="fill:#455a64"></path><path d="M93.41,401.85H91.9c-10.73,0-17.73-8.69-15.65-19.42L101,255.09c2.08-10.72,12.47-19.42,23.19-19.42h1.51c10.72,0,17.73,8.7,15.64,19.42L116.6,382.43C114.52,393.16,104.13,401.85,93.41,401.85Z" style="fill:#263238"></path><path d="M117.18,260.2a1.88,1.88,0,0,1-1.61,1.61c-.71,0-1.16-.72-1-1.61a1.88,1.88,0,0,1,1.61-1.61C116.91,258.59,117.36,259.31,117.18,260.2Z" style="fill:#a6a6a6"></path><path d="M125.79,260.2a1.88,1.88,0,0,1-1.61,1.61c-.72,0-1.16-.72-1-1.61a1.9,1.9,0,0,1,1.61-1.61C125.52,258.59,126,259.31,125.79,260.2Z" style="fill:#a6a6a6"></path><path d="M115.09,271a1.88,1.88,0,0,1-1.61,1.61c-.71,0-1.16-.72-1-1.61a1.88,1.88,0,0,1,1.61-1.61C114.82,269.34,115.27,270.06,115.09,271Z" style="fill:#a6a6a6"></path><path d="M123.7,271a1.88,1.88,0,0,1-1.61,1.61c-.72,0-1.16-.72-1-1.61a1.9,1.9,0,0,1,1.61-1.61C123.43,269.34,123.87,270.06,123.7,271Z" style="fill:#a6a6a6"></path><path d="M96.51,366.58a1.9,1.9,0,0,1-1.62,1.6c-.71,0-1.15-.72-1-1.6A1.88,1.88,0,0,1,95.52,365C96.24,365,96.68,365.69,96.51,366.58Z" style="fill:#a6a6a6"></path><path d="M105.11,366.58a1.88,1.88,0,0,1-1.61,1.6c-.72,0-1.16-.72-1-1.6a1.9,1.9,0,0,1,1.62-1.61C104.84,365,105.28,365.69,105.11,366.58Z" style="fill:#a6a6a6"></path><path d="M94.42,377.33a1.9,1.9,0,0,1-1.62,1.61c-.71,0-1.15-.72-1-1.61a1.88,1.88,0,0,1,1.61-1.61C94.15,375.72,94.59,376.44,94.42,377.33Z" style="fill:#a6a6a6"></path><path d="M103,377.33a1.88,1.88,0,0,1-1.61,1.61c-.72,0-1.16-.72-1-1.61a1.9,1.9,0,0,1,1.62-1.61C102.75,375.72,103.19,376.44,103,377.33Z" style="fill:#a6a6a6"></path><path d="M126.82,199.41c-9.41,9.23-18.23,20.45-20.55,34a6.77,6.77,0,0,0,.62,4.42c-1.15,6.06,1.37,8.42,1.37,8.42.66,6,3.57,8,3.57,8s-.33,5,3.14,5.45,6.64-7.25,10.59-12.65c9.06-12.37,24.08-25.67,27.05-29Z" style="fill:#d3766a"></path><path d="M124.63,229.22a100.23,100.23,0,0,0-7.32,11.28A99.46,99.46,0,0,0,112,254.23a.12.12,0,0,1-.23-.06,52.1,52.1,0,0,1,12.72-25.07C124.62,228.94,124.76,229,124.63,229.22Z" style="fill:#263238"></path><path d="M118,222.67c-2.32,3.73-6.36,10.32-9.56,23.64,0,0-.09,0-.08,0a46.7,46.7,0,0,1,9.47-23.74C118,222.34,118.12,222.42,118,222.67Z" style="fill:#263238"></path><path d="M114.31,219.21c-3.71,6.5-5.22,11.07-7.38,18.62a0,0,0,0,1-.09,0C108.4,229,110,226,114.11,219.06,114.25,218.82,114.46,219,114.31,219.21Z" style="fill:#263238"></path><path d="M156.28,222.58l-26.9-31.09s25.61-22.53,27-25.58,16-34.07,21.31-45.52c6-13,16.15-20.26,15.39.9a293.87,293.87,0,0,1-8.19,59.31C183.27,187.84,156.28,222.58,156.28,222.58Z" style="fill:#00318E"></path><path d="M158.72,213.11a34.32,34.32,0,0,0-2.77-3.26c-.83-1-1.64-1.95-2.48-2.91-1.84-2.09-3.67-4.19-5.51-6.27s-3.68-4.16-5.54-6.22-3.65-4.16-5.61-6.1a.09.09,0,0,0-.14.12c1.55,2.29,3.34,4.42,5.08,6.57s3.5,4.17,5.3,6.22,3.74,4.1,5.65,6.11c.92,1,1.88,1.91,2.83,2.85a32.19,32.19,0,0,0,3.09,3A.07.07,0,0,0,158.72,213.11Z" style="fill:#263238"></path><path d="M193.11,121.29a293.87,293.87,0,0,1-8.19,59.31c-1.65,7.24-28.64,42-28.64,42l-12.23-14.14L189.15,108C191.71,108.26,193.44,112.07,193.11,121.29Z" style="opacity:0.1"></path><path d="M202.7,342.06l36.66,29.62c7,5.62,13.1,10.68,16,13.59a.08.08,0,0,1,.05.05c1.09,1.09,1.73,1.87,1.76,2.25,0,0,0,.06,0,.08-.26,3.23-43.56,60.76-45.75,62.25s-6.63-4.61-6.73-8.18,6.64-33,6.64-33L175,378.75Z" style="fill:#d3766a"></path><path d="M231.84,365.6l7.52,6.08c7,5.62,13.1,10.68,16,13.59a.08.08,0,0,1,.05.05,12.52,12.52,0,0,1,1.76,2.25s0,.06,0,.08c-.26,3.23-43.56,60.76-45.75,62.25s-6.63-4.61-6.73-8.18,6.64-33,6.64-33l-7.72-6.06Z" style="fill:#ebebeb"></path><path d="M211.71,450.1c2.19-1.49,45.55-59,45.81-62.21.12-1.23-7.89-8-17.8-16l-.32-.25L211,408.43l.65.46s-6.76,29.43-6.67,33S209.52,451.61,211.71,450.1Z" style="fill:#263238"></path><path d="M210,447.77c7.07-9.87,36.52-49,44.26-58.23.07-.07.12,0,.06,0-6.79,9.94-36.56,48.83-44.16,58.3C210,448.09,209.82,448,210,447.77Z" style="fill:#fff"></path><path d="M209.42,412.09c2.16-4.35,6.26-8.57,11.18-9.43.19,0,.23.23.1.33a67.81,67.81,0,0,0-10.79,9.45A.3.3,0,0,1,209.42,412.09Z" style="fill:#fff"></path><path d="M209,416.1c2.16-4.35,6.27-8.58,11.18-9.44.19,0,.24.24.1.33a67.81,67.81,0,0,0-10.79,9.45A.3.3,0,0,1,209,416.1Z" style="fill:#fff"></path><path d="M208.58,420.1c2.17-4.35,6.27-8.57,11.18-9.44.19,0,.24.24.11.34a66.47,66.47,0,0,0-10.8,9.45A.3.3,0,0,1,208.58,420.1Z" style="fill:#fff"></path><path d="M209,449.43c-.38,1.32,3.25,3.71,4.08,3.17s47.84-63.41,48.41-64.66-3.56-3.74-4.69-2.65S209,449.43,209,449.43Z" style="fill:#00318E"></path><path d="M238.68,386c1.06-5.74,10-4.1,8.92,1.64S237.62,391.76,238.68,386Z" style="fill:#fff"></path><path d="M180.8,307.61c2.6,12.82,47.06,54.78,47.06,54.78L199.52,399s-72.75-54.32-69.64-82.74c3.26-29.84,40.46-130.05,40.46-130.05h42.54S178.25,295,180.8,307.61Z" style="fill:#37474f"></path><path d="M177.59,299.65c.6-3.17,1.27-6.33,1.93-9.49q2-9.69,4.29-19.31,4.47-19.1,9.75-38c3.53-12.63,7.27-25.24,11.58-37.63.53-1.53,1.08-3.05,1.63-4.57,0-.12.22-.07.18.05-3.73,12.41-7.57,24.78-11.07,37.25s-6.71,24.92-9.74,37.47c-1.53,6.3-2.95,12.62-4.34,18.95q-1,4.67-2,9.35a67,67,0,0,0-1.74,9.63,14.82,14.82,0,0,0,2.44,8.67c1.55,2.59,3.38,5,5.15,7.46,3.55,4.9,37.32,43.17,38.41,44.22.09.08,0,.2-.13.12-4.53-4.14-33.19-35.69-36.83-40.57q-2.7-3.61-5.28-7.34a29,29,0,0,1-4.12-7.39A17.72,17.72,0,0,1,177.59,299.65Z" style="fill:#263238"></path><path d="M177.7,186.16l6.61,99c7.37-34.7,28.56-99,28.56-99Z" style="fill:#263238"></path><path d="M195.47,395.19s-8.72,44.4-8.71,44.43c-.13,9-.4,16.9-.92,21a.09.09,0,0,1,0,.07,6.33,6.33,0,0,1-.71,2.77s0,.05,0,.06c-2.71,1.78-74.71,2.89-77.23,2.09s-.43-8.07,2.33-10.34,30.15-15,30.15-15L150,395.52Z" style="fill:#d3766a"></path><path d="M107.85,465.57c2.52.81,74.53-.3,77.23-2.08l.06-.06a6.33,6.33,0,0,0,.7-2.77.2.2,0,0,0,0-.07c.52-4.07.78-12,.91-21,0,0,1.59-7.79,1.59-7.79H142.13l-1.79,8.37S113,453,110.18,455.24,105.31,464.78,107.85,465.57Z" style="fill:#ebebeb"></path><path d="M107.85,465.58c2.53.81,74.52-.31,77.23-2.09,1-.66,1.49-11.17,1.67-23.87v-.4l-46.45.21,0,.78S113,453,110.18,455.24,105.32,464.78,107.85,465.58Z" style="fill:#263238"></path><path d="M108.62,462.77c12.13-.48,61.11-1.3,73.14-.86.09,0,.1.07,0,.08-12,.74-61,1.16-73.14,1C108.37,463,108.36,462.78,108.62,462.77Z" style="fill:#fff"></path><path d="M136.43,440.41c4.76-1,10.61-.32,14.31,3,.15.13,0,.33-.19.28a67.47,67.47,0,0,0-14.09-2.7A.31.31,0,0,1,136.43,440.41Z" style="fill:#fff"></path><path d="M133,442.55c4.76-1,10.62-.33,14.32,3,.14.13,0,.33-.2.28a67.34,67.34,0,0,0-14.09-2.7A.3.3,0,0,1,133,442.55Z" style="fill:#fff"></path><path d="M129.6,444.68c4.76-1,10.61-.33,14.31,3,.15.13,0,.33-.19.28a67.47,67.47,0,0,0-14.09-2.7A.3.3,0,0,1,129.6,444.68Z" style="fill:#fff"></path><path d="M106.71,463c-1.28.52-.94,4.84,0,5.18s79.43-1.24,80.76-1.55.76-5.1-.79-5.33S106.71,463,106.71,463Z" style="fill:#00318E"></path><path d="M175,447.47c5.18-2.69,9.37,5.36,4.18,8S169.8,450.17,175,447.47Z" style="fill:#fff"></path><path d="M174.44,186.17a174,174,0,0,1,3.65,21.22c.89,8.91,2,16.78,3.19,17.76,1.34,1.11,8.07,5.43,10.33,6.81,0,0-21,63.55-26.37,84.73-7.84,30.71-21.75,108.86-21.75,108.86l45.88,1.33s14.51-75.07,21.16-104.3c5.7-25.07,27.55-100.26,27.55-100.26a43.63,43.63,0,0,0-1.77-36.15S174.43,186.13,174.44,186.17Z" style="fill:#37474f"></path><path d="M177.73,222.64a96.15,96.15,0,0,1,13.81,9.25.17.17,0,0,1-.19.28c-4.68-2.93-9.47-5.78-14-9A.33.33,0,0,1,177.73,222.64Z" style="fill:#263238"></path><path d="M181.56,188.07c0-.17.35-.16.32,0A166.87,166.87,0,0,0,180.12,205c-.17,2.62-.31,17.21,4.33,16.86.78-.05,1.27-.73,1.57-1.84a18,18,0,0,0,.08-4.47c0-3.07,0-6.13.25-9.18a82.25,82.25,0,0,1,2.8-16.86.15.15,0,0,1,.29.06,156.07,156.07,0,0,0-2.26,23.52c0,3.8,1,9.68-3,9.65s-5.15-9.79-5.24-12.43A86.3,86.3,0,0,1,181.56,188.07Z" style="fill:#263238"></path><path d="M184.27,222.21a23.55,23.55,0,0,1,.55,3.11,7,7,0,0,1,0,2.5c0,.16-.25.14-.32,0a8.67,8.67,0,0,1-.67-2.53c-.2-1-.42-1.93-.59-2.9A.51.51,0,0,1,184.27,222.21Z" style="fill:#263238"></path><path d="M231,222c-5.12-.52-7.74-.76-12.69-2.39A30.09,30.09,0,0,1,206,212a23.93,23.93,0,0,1-4.72-6.59c0-.1-.19,0-.16.07a22.13,22.13,0,0,0,3.34,6.61,25.74,25.74,0,0,0,5.41,5.17,28.4,28.4,0,0,0,13.77,5.31,22.21,22.21,0,0,0,7.41-.11C231.33,222.38,231.22,222,231,222Z" style="fill:#263238"></path><path d="M198.19,378.79c1.57-8.84,3.39-17.65,5.3-26.41,1.08-5,2.34-9.86,3.66-14.76.09-.34.57-.17.51.16-.8,4.48-1.58,9-2.49,13.43s-1.83,8.89-2.71,13.35c-1.75,8.8-8.68,39.92-8.88,41.16,0,.12-.2.07-.18-.05C193.59,404.49,197.41,383.22,198.19,378.79Z" style="fill:#263238"></path><path d="M160,335.72c1.67-8.3,3.91-16.5,6.17-24.66,4.55-16.42,9.91-32.6,15.25-48.78q2.31-7,4.61-14c.77-2.32,4.55-14.89,5-16.09a.1.1,0,0,1,.2.06c-1.08,4.28-2.57,10.53-3.81,14.76s-2.59,8.35-3.89,12.52c-2.55,8.19-5.15,16.37-7.64,24.59-4.9,16.24-9.77,32.47-13.76,49-1.11,4.62-2.22,9.23-3.24,13.87s-1.89,9.3-2.86,13.95a.12.12,0,0,1-.23,0C156.62,352.42,158.3,344.05,160,335.72Z" style="fill:#263238"></path><path d="M191.08,379.16c2.76-15.84,6.06-31.6,9.71-47.25s7.77-31.37,12.27-46.89,9.5-30.89,14.87-46.13a194,194,0,0,0,6.8-21.95c1.65-7.4,2.48-15.4.76-22.87a38.8,38.8,0,0,0-1.71-5.56c-.05-.12.13-.23.19-.1,6,14,2.11,29.36-2.47,43.19-2.51,7.58-5.19,15.09-7.67,22.68Q220,266,216.52,277.74c-4.61,15.57-8.9,31.22-12.74,47s-7.27,31.64-10.28,47.59-5.56,32.08-8.13,48.17c-.34,2.09-.6,4.19-.88,6.29,0,.12-.2.12-.18,0C186.24,410.85,188.33,395,191.08,379.16Z" style="fill:#263238"></path><path d="M241,215.12c-.18.2-79.41-2-80.09-2.75-.2-.23-2.47-10.1-1.26-16.09,4.52-22.38,23.46-81.53,29.67-89.45,1.68-2.15,7.17-2.7,11.82-2.07a21,21,0,0,1,3.58.77l.12,0a8.76,8.76,0,0,1,2.62,1.32c12.86,10.48,36.35,83.07,37.87,90C246.61,202.84,241.26,214.8,241,215.12Z" style="fill:#00318E"></path><path d="M214.09,206.61l-5.46-12.67.22.12a9.61,9.61,0,0,1-6.12-1.22,12.35,12.35,0,0,1-4.37-4.48l-.42-.67c-.12-.23-.22-.47-.34-.71l-.67-1.42c-.34-1-.72-2-1-3s-.52-2-.7-3l-.47-3.09.39.37-19.66-.74.49-.44a34,34,0,0,1-.78,4.83,26.87,26.87,0,0,1-1.49,4.66,15.75,15.75,0,0,1-2.52,4.24,10.39,10.39,0,0,1-4,3l.3-.35-3,12.68-.42-.55c8.29.34,16.57.77,24.91,1.2Zm0,0-24.93-.75c-8.37-.25-16.8-.5-25.22-.84l-.54,0,.12-.53,3-12.7.06-.24.24-.1a9.31,9.31,0,0,0,3.63-2.68,16.1,16.1,0,0,0,2.38-4,25.88,25.88,0,0,0,1.46-4.49,34.22,34.22,0,0,0,.78-4.67l0-.46.44,0,19.65.86h.34l.05.35.42,3c.16,1,.43,2,.63,3s.61,1.94.93,2.91l.63,1.38c.1.23.2.47.31.7l.4.64a11.66,11.66,0,0,0,4.1,4.35,9.37,9.37,0,0,0,5.77,1.29l.16,0,.06.14Z" style="opacity:0.1"></path><path d="M215.16,113.46c19.05,21.39,33.37,51.51,33.2,58.6-.19,7.79-10.11,35.27-19.58,48.19-1.21,1.66-8.58,1-14.82-2.47-6.57-3.62-12-10.08-10.68-12,4.85-7.22,16.36-35.2,16.25-39.58-.09-4-9.52-28.8-13.11-43.13C203,109.3,206.3,103.51,215.16,113.46Z" style="fill:#d3766a"></path><path d="M240.35,218.14l-35.47-17.33s14-31.12,14-34.48-9.18-29.69-12.64-41.85-2.12-25.83,13-7.44,28.38,45.73,29.89,53S240.35,218.14,240.35,218.14Z" style="fill:#00318E"></path><path d="M217,157.39q-1.09-3.46-2.26-6.91c-.87-2.57-1.78-5.12-2.73-7.67s-1.95-4.9-2.95-7.35c-.07-.18-.38-.06-.31.12,1.17,3.27,2.28,6.58,3.38,9.89-.83-1.51-1.67-3-2.56-4.48a.11.11,0,1,0-.19.1c1,1.83,2,3.63,3.1,5.42.26.79.53,1.59.79,2.39,1.49,4.44,2.92,8.9,4.2,13.41a15.57,15.57,0,0,1,.64,3.09,9.62,9.62,0,0,1-.53,3.53c-.64,2.08-1.37,4.14-2.1,6.19-1.48,4.12-3.09,8.19-4.78,12.23-1.92,4.59-4.11,9.14-6.29,13.61,0,0,1.32.35,1.36.38s.1,0,.07-.08-.83-.43-.85-.43c2.21-3.88,4.33-7.69,6.19-11.76s3.51-8.13,5-12.3q1.15-3.22,2.19-6.48A12.24,12.24,0,0,0,219,164,65,65,0,0,0,217,157.39Z" style="fill:#263238"></path><path d="M240.93,208.15a33.39,33.39,0,0,0-3.87-1.83c-1.15-.54-2.3-1.1-3.46-1.62-2.54-1.14-5.07-2.3-7.61-3.43s-5.07-2.27-7.61-3.38-5-2.28-7.63-3.24c-.1,0-.17.11-.08.17,2.36,1.44,4.87,2.65,7.34,3.88s4.91,2.36,7.4,3.47,5.1,2.2,7.67,3.24c1.24.5,2.49,1,3.75,1.43a30.92,30.92,0,0,0,4,1.43A.07.07,0,0,0,240.93,208.15Z" style="fill:#263238"></path><path d="M193.2,119.62s11.44-10.47,18.62-10l5.91,5.61s2,.73,2.64-.52c1.64-3.09,2.2-10.66-4.16-15.8-5.83-4.71-18.12-4.2-26.36-2.32-7.9,1.8-12.38,6.27-10.14,11.46S193.2,119.62,193.2,119.62Z" style="fill:#00318E"></path><path d="M192.49,117.19s-8.78-6.71-9.58-10.56,6.94-7.21,11.91-8.48c7.69-2,12.86-1.28,17,2.92S192.49,117.19,192.49,117.19Z" style="opacity:0.1"></path><path d="M192.49,117.19c3.61.42,10.44-4.6,12.35-9.92.13-.37-1-3.82-2.06-8.09-.66-2.59-1.33-5.48-1.76-8.17-.08-.56-16.22,6.76-16.22,6.76a43.4,43.4,0,0,1,3.26,10.07,5.5,5.5,0,0,1,.06,1.13,1.21,1.21,0,0,0,0,.18C188.12,111.3,188.62,116.75,192.49,117.19Z" style="fill:#d3766a"></path><path d="M188.12,109a1.15,1.15,0,0,0,0,.18,11.3,11.3,0,0,0,1.74-.18c9.89-1.79,10.55-14.63,10.55-17.86-2.93.9-15.62,6.66-15.62,6.66a43.69,43.69,0,0,1,3.27,10.08A7.16,7.16,0,0,1,188.12,109Z" style="fill:#263238"></path><path d="M204.84,84.81a31.62,31.62,0,0,0,0,5.61c.33,1.45,3.52,3.08,3.52,3.08s-3.74,1.18-4.79.89-2.64-3-2.64-3,1.41,4.36,2.91,4.64c.92.17-2.3.09-2.3.09a4.32,4.32,0,0,1-2.76-1.39C197.72,93.42,204.84,84.81,204.84,84.81Z" style="fill:#263238"></path><path d="M203,71.37c1.78,6.07-1.62,23.53-6,27.38-6.31,5.59-16.54,6-21.26-1.55-4.57-7.33.26-30,5.11-33.49C188.06,58.57,200.4,62.39,203,71.37Z" style="fill:#d3766a"></path><path d="M188.36,82c0-.05.08.07.07.12-.26,1.17-.36,2.55.63,3.14,0,0,0,.08,0,.07C187.77,84.94,187.92,83.1,188.36,82Z" style="fill:#263238"></path><path d="M189.64,81c1.92.21,1.35,4-.43,3.84S188,80.83,189.64,81Z" style="fill:#263238"></path><path d="M181.07,81s-.1,0-.11.09c-.14,1.19-.5,2.53-1.63,2.76,0,0,0,.07,0,.07C180.67,83.91,181.13,82.13,181.07,81Z" style="fill:#263238"></path><path d="M180.2,79.58c-1.89-.42-2.61,3.37-.86,3.77S181.78,79.94,180.2,79.58Z" style="fill:#263238"></path><path d="M191.41,79.48a14.37,14.37,0,0,1-1.4-.74,2.59,2.59,0,0,1-1.29-1,.82.82,0,0,1,.28-1,2,2,0,0,1,2.05.1,3,3,0,0,1,1.51,1.52A.87.87,0,0,1,191.41,79.48Z" style="fill:#263238"></path><path d="M179.18,76.16a14.09,14.09,0,0,0,1.58-.16,2.61,2.61,0,0,0,1.58-.48.81.81,0,0,0,.1-1,2,2,0,0,0-1.94-.68,3,3,0,0,0-2,.86A.87.87,0,0,0,179.18,76.16Z" style="fill:#263238"></path><path d="M187.24,93.07c-.32.24-.66.58-1.1.55a3.34,3.34,0,0,1-1.23-.49,0,0,0,0,0-.06.05,1.63,1.63,0,0,0,1.41.87,1.27,1.27,0,0,0,1.09-.91C187.38,93.08,187.29,93,187.24,93.07Z" style="fill:#263238"></path><path d="M186.53,89.34a4.1,4.1,0,0,1-3,1.39,5.14,5.14,0,0,1-1.46-.15l-.28-.07-.25-.08a.3.3,0,0,1-.2-.3h0l0-.12h0l0-.1c.11-.92.41-2.29.41-2.29-.36.11-2.17.62-2.07.15a61.29,61.29,0,0,1,3.38-12,.11.11,0,0,1,.22.06c-.65,3.79-2,7.44-2.66,11.24a7,7,0,0,1,2-.3c.12.06-.62,2.65-.64,3.06v0a5.66,5.66,0,0,0,4.37-.68C186.53,89.16,186.61,89.25,186.53,89.34Z" style="fill:#263238"></path><path d="M182.71,90.2a4.87,4.87,0,0,0,1.7,1.77,2.18,2.18,0,0,0,1.29.28c1-.11,1.14-1,1.08-1.74a5.1,5.1,0,0,0-.26-1.21A6.26,6.26,0,0,1,182.71,90.2Z" style="fill:#263238"></path><path d="M184.41,92a2.18,2.18,0,0,0,1.29.28c1-.11,1.14-1,1.08-1.74A2.24,2.24,0,0,0,184.41,92Z" style="fill:#ff9bbc"></path><path d="M202.17,86.38c-3.14-.94-4.6-11.56-4.6-11.56l-.69,5.82A14.11,14.11,0,0,1,193.37,76a10.33,10.33,0,0,1-.17-5.75s-3.55,3.62-7.6,4.63c-1.49.37-12.43.17-12.42-.51,0-2,4.44-9.2,7.22-11a14.29,14.29,0,0,1,14.25-1.54c6.5,2.59,8.15,6.81,9.07,10.08S203.33,86.73,202.17,86.38Z" style="fill:#263238"></path><path d="M198.44,85.77s4.13-5.53,6.65-4-.71,9.6-3.75,10.62a3.07,3.07,0,0,1-4.06-1.77Z" style="fill:#d3766a"></path><path d="M204.11,84a0,0,0,0,1,0,.08c-2.14.79-3.31,2.71-4.15,4.72a1.69,1.69,0,0,1,2.54-.38c.06,0,0,.12-.06.11a1.89,1.89,0,0,0-2.09.59,9.42,9.42,0,0,0-1.05,1.65c-.1.18-.44.07-.36-.14l0,0C199,87.91,201.21,84.21,204.11,84Z" style="fill:#263238"></path><path d="M186.3,60.59a25.34,25.34,0,0,1,7-2c2.72-.29,11.24.51,13.25,2.25s2.42,9.8,2.46,11-.61,8.27-3.21,9.94-2.65-10.4-6.65-14.48S186.3,60.59,186.3,60.59Z" style="fill:#00318E"></path><path d="M186.3,60.59s8.88,2.65,12.87,6.72,4,16.16,6.65,14.49c1.15-.74,1.72-1.85,2.21-3.73-.48-3.54-1.81-9-4.69-12.88-2.69-3.6-7.4-5.48-12.47-6.14A28.41,28.41,0,0,0,186.3,60.59Z" style="opacity:0.1"></path><path d="M205,89c-.17-3.22-3.3-11.89-6.65-16.89s-13.39-8-14.8-8c-3.43.14-4.61,1.16-5.15.84s3-2.83,4-3.39,3.59-1.88,5.08-1.82,10.65,1.13,13.92,5.1,7.81,15,6.9,17.82c-.22.67-1.13,1.09-1.43,2-.4,1.25-.68,2.7-1.08,3.57C205.47,88.93,205,89.23,205,89Z" style="fill:#00318E"></path><path d="M197.59,69.83a16,16,0,0,0,2.25-1.59,12.23,12.23,0,0,0,1.94-2c0-.06.13,0,.09.05a9,9,0,0,1-1.77,2.25A7.59,7.59,0,0,1,197.66,70,.09.09,0,0,1,197.59,69.83Z" style="fill:#263238"></path><path d="M205.08,85.74c.09-.23.25-.44.36-.66a3.61,3.61,0,0,0,.31-.79,7.51,7.51,0,0,1,.4-1.55,5.74,5.74,0,0,1,.77-1.06,2.14,2.14,0,0,0,.65-1.3c0-.07.11-.07.11,0a5.4,5.4,0,0,1-1.12,2.47,10.6,10.6,0,0,0-.47,1.67,2.55,2.55,0,0,1-.87,1.33C205.15,85.89,205,85.82,205.08,85.74Z" style="fill:#263238"></path><path d="M204,82.24a13.76,13.76,0,0,0,.92-1.08,10.1,10.1,0,0,0,.71-1.19c.21-.4.39-.82.59-1.23s.53-.95.75-1.44c0-.06.12,0,.09,0-.22.52-.35,1.07-.56,1.59a10.45,10.45,0,0,1-.64,1.3,6.84,6.84,0,0,1-.78,1.15,3.64,3.64,0,0,1-1.05.9S204,82.27,204,82.24Z" style="fill:#263238"></path><path d="M202.91,79.08a9.41,9.41,0,0,0,1.78-2c.48-.72.92-1.47,1.35-2.22,0,0,.12,0,.1,0A10.82,10.82,0,0,1,205,77.38a6.18,6.18,0,0,1-.84,1,6.11,6.11,0,0,1-1.17.78C202.92,79.19,202.86,79.12,202.91,79.08Z" style="fill:#263238"></path><path d="M201.69,76a3.16,3.16,0,0,0,.86-.85c.29-.35.56-.71.83-1.09s.52-.7.77-1.06a3.1,3.1,0,0,0,.6-1.17c0-.06.11-.05.1,0a3.31,3.31,0,0,1-.39,1.26,8.7,8.7,0,0,1-.75,1.24,8.79,8.79,0,0,1-.92,1.1,2,2,0,0,1-1,.7A.08.08,0,0,1,201.69,76Z" style="fill:#263238"></path><path d="M200.83,72.21c.3-.29.6-.58.88-.89s.55-.63.81-1,.55-.68.8-1c0-.06.12,0,.09.05a8.49,8.49,0,0,1-.61,1.16,8.87,8.87,0,0,1-.8,1,9.66,9.66,0,0,1-.9.91,3.29,3.29,0,0,1-1.06.71.07.07,0,0,1-.08-.11A5.89,5.89,0,0,1,200.83,72.21Z" style="fill:#263238"></path><path d="M195.15,68c.33-.39.64-.77,1-1.13s.76-.7,1.16-1a13.53,13.53,0,0,1,2.53-1.64s.11,0,.06.08c-1.54,1.28-3.14,2.49-4.67,3.79A.06.06,0,0,1,195.15,68Z" style="fill:#263238"></path><path d="M193.25,65.18a6,6,0,0,1,1.11-1,14.88,14.88,0,0,1,2.78-1.49c.07,0,.12,0,.06.09-.84.54-1.7,1.07-2.51,1.66a14.78,14.78,0,0,0-1.17.92c-.36.33-.65.74-1,1.09,0,0-.08,0-.07,0A3.75,3.75,0,0,1,193.25,65.18Z" style="fill:#263238"></path><path d="M190.59,63.87a7.63,7.63,0,0,1,1-1A8.29,8.29,0,0,1,194,61.51c.06,0,.1.07,0,.1a15.12,15.12,0,0,0-2.25,1.57c-.35.29-.69.6-1,.91a11.33,11.33,0,0,1-1,1s-.06,0-.05,0A8,8,0,0,1,190.59,63.87Z" style="fill:#263238"></path><path d="M188.68,62.23c.35-.27.7-.52,1.06-.77a4.25,4.25,0,0,1,1.13-.61c.06,0,.09.07,0,.1-.67.51-1.32,1-2,1.57a10.73,10.73,0,0,0-1.54,1.75s-.07,0,0,0A4.16,4.16,0,0,1,188.68,62.23Z" style="fill:#263238"></path><path d="M186.28,61.67a6.57,6.57,0,0,1,2.17-1.3c.05,0,.1.07,0,.1a8.19,8.19,0,0,0-2,1.43,11.42,11.42,0,0,0-1.57,1.89s-.08,0-.07,0A5.42,5.42,0,0,1,186.28,61.67Z" style="fill:#263238"></path><path d="M183.09,63.06a4.76,4.76,0,0,1,.28-.49,6,6,0,0,1,.74-.86A11.36,11.36,0,0,1,186,60.34s.11,0,0,.09a9,9,0,0,0-1.73,1.41,8.2,8.2,0,0,0-.71.85c-.1.14-.2.3-.29.45a3.35,3.35,0,0,1-.27.45.06.06,0,0,1-.1,0A1.53,1.53,0,0,1,183.09,63.06Z" style="fill:#263238"></path><path d="M181.15,63.2a8.32,8.32,0,0,1,.6-.71,8.18,8.18,0,0,1,.68-.64c.25-.2.51-.39.74-.6.06,0,.13,0,.07.08a5.46,5.46,0,0,0-.69.67l-.62.66c-.2.22-.41.44-.61.67s-.39.48-.62.68c0,0-.08,0-.06-.05A4.21,4.21,0,0,1,181.15,63.2Z" style="fill:#263238"></path><path d="M192.49,117.19s9.39-14.74,20.54-15.86l-1.21,8.31s-6.63-.21-18.62,10Z" style="fill:#00318E"></path><path d="M214.8,109.89a14.09,14.09,0,0,0-6,.6,26.54,26.54,0,0,0-5.54,2.36,45.25,45.25,0,0,0-5.08,3.27L195.81,118l-2.3,2-.26.22L193,120a50.71,50.71,0,0,1-5.86-3.81,28.66,28.66,0,0,1-2.69-2.23,17.89,17.89,0,0,1-2.33-2.59,31.39,31.39,0,0,0,5.37,4.32c1,.63,1.94,1.23,2.94,1.81s2,1.15,3,1.67l-.53.07,2.31-2c.79-.65,1.6-1.28,2.42-1.91s1.69-1.18,2.56-1.73,1.76-1.08,2.7-1.52a24.39,24.39,0,0,1,5.81-2.13c.5-.12,1-.19,1.53-.28s1-.11,1.54-.11A8.92,8.92,0,0,1,214.8,109.89Z" style="fill:#263238"></path><path d="M217.73,115.25a32.72,32.72,0,0,1-5.91-5.61,29.12,29.12,0,0,1,3.12,2.63A30.27,30.27,0,0,1,217.73,115.25Z" style="fill:#263238"></path><path d="M197.28,113.78a61.49,61.49,0,0,1,1.66,10.44c.19,2.45-.25,11.32-3,11.15s1.37-6.1,1.89-10.79-.92-8-1.25-10.8Z" style="fill:#00318E"></path><g style="opacity:0.1"><path d="M197.28,113.78a61.49,61.49,0,0,1,1.66,10.44c.19,2.45-.25,11.32-3,11.15s1.37-6.1,1.89-10.79-.92-8-1.25-10.8Z"></path></g><path d="M187.27,113.78a55.72,55.72,0,0,0-1.5,9.47c-.17,2.22.23,10.26,2.72,10.11s-1.24-5.53-1.71-9.79.83-7.27,1.13-9.79Z" style="fill:#00318E"></path><g style="opacity:0.1"><path d="M187.27,113.78a55.72,55.72,0,0,0-1.5,9.47c-.17,2.22.23,10.26,2.72,10.11s-1.24-5.53-1.71-9.79.83-7.27,1.13-9.79Z"></path></g></g><g id="freepik--character-2--inject-166"><path d="M276,130.1a.49.49,0,0,0,.4.52l2,.13c1.81-4.71,3.76-8.45,3.25-7a24.33,24.33,0,0,0-1.27,7.12l4,.19c1.57-8.29,3.59-14.44,3.46-12.54-.51,7.65-.05,10.12.48,12.74,9.62.46,22.24.91,31.37,1,1.05-4.59,2-9.55,2.14-9.2,1.24,2.59,1.58,6.35,1.6,9.24,2.91,0,5.23,0,6.65-.11,0,0,.68-3.85.78-5.12a26.33,26.33,0,0,0-1-9.66,47.56,47.56,0,0,0-4.21-9l0-.06s0,0,0,0a27.19,27.19,0,0,1-2.42-6,.06.06,0,0,1,0,0,26.83,26.83,0,0,1-.75-4.59c-.42-5.66-3.61-10.56-8.93-12.06-10-9.47-20.11-5.5-23.16,1.75-.29.71-.57,1.52-.85,2.41v0c-1,3.28-1.95,7.52-2.81,10.8a0,0,0,0,1,0,0s0,0,0,0h0a30.46,30.46,0,0,1-1.2,3.79C282.88,110.48,277.08,113.83,276,130.1Z" style="fill:#263238"></path><path d="M315.78,87.3A10.71,10.71,0,0,1,322,95.92a27.93,27.93,0,0,0,1.4,7,24.54,24.54,0,0,0,4,6.2c2.46,3.06,4.18,6.1,4.57,10.16a31.24,31.24,0,0,1-1.21,12.82s0,0,0,0a33,33,0,0,0,.47-13.37c-.77-4.49-3.3-7.31-5.9-10.72a18.76,18.76,0,0,1-3.81-9.16c-.26-2-.23-4.17-1-6.09-1-2.3-2.94-3.76-4.88-5.06A.24.24,0,0,1,315.78,87.3Z" style="fill:#263238"></path><path d="M279.57,110.9c2.46-3.2,5-5.94,6.47-9.92,1.32-3.63,2.07-7.46,3.41-11.08,0-.06.11,0,.09,0-2.06,6.44-2.46,12.93-6.62,18.34-2.26,2.94-4.52,5.66-6,9.19a31.49,31.49,0,0,0-2.35,11.64c0,.14-.18.13-.2,0A26.08,26.08,0,0,1,279.57,110.9Z" style="fill:#263238"></path><path d="M313.47,85.21c-1.41-.53-2.74-8.4,2.43-12.14s11.79.53,9,7C323.16,84.12,316.45,86.32,313.47,85.21Z" style="fill:#263238"></path><path d="M323.13,72.6a8.78,8.78,0,0,1,3,5,5.31,5.31,0,0,1-1.57,5.07,10.71,10.71,0,0,1-5.14,2.51,16.08,16.08,0,0,1-2.95.36,8.14,8.14,0,0,1-3-.32,7.25,7.25,0,0,0,3,.87,12.54,12.54,0,0,0,3.12,0,10.35,10.35,0,0,0,5.77-2.56A5.92,5.92,0,0,0,327,77.39,7.8,7.8,0,0,0,323.13,72.6Z" style="fill:#263238"></path><path d="M301.09,140.82c-5.77,9.66-32.1,40.91-36.33,43.12-5,2.65-24.6-1.72-24.59-6.43,0-12.15,38.69-41.73,55.51-50C303.9,123.48,310.76,124.65,301.09,140.82Z" style="fill:#ffc4c0"></path><path d="M264.75,145.11l25.08,13S301,144,305.31,133.85c3.3-7.74-.8-10.17-6-8.16C282,132.4,264.75,145.11,264.75,145.11Z" style="fill:#00318E"></path><path d="M291.07,153.58c-3.72-2.28-14-8.16-21.17-11.1,0,0-.13.14-.09.16,5.6,3.35,17.23,9.22,21.13,11.17C291,153.84,291.14,153.62,291.07,153.58Z" style="fill:#263238"></path><path d="M305.32,133.85C301,144,289.83,158.1,289.83,158.1l-15.45-8,31-24.1C306.75,127.29,307,129.86,305.32,133.85Z" style="opacity:0.1"></path><path d="M225.79,468.68c2.82-.45,71.51-36.4,73.27-39.42.67-1.15-4-11.46-10-23.75-1.29-2.66-7.35-45.73-7.35-45.73L235,378.89l9.71,49.66S224.6,454.08,223,457.6,223,469.13,225.79,468.68Z" style="fill:#ffc4c0"></path><path d="M299.05,429.26c-1.74,3-70.44,39-73.26,39.42s-4.3-7.56-2.75-11.07,21.71-29.06,21.71-29.06l-2-10.32,44.73-20.7a60.66,60.66,0,0,0,1.64,8C295.08,417.81,299.72,428.11,299.05,429.26Z" style="fill:#ebebeb"></path><path d="M225.79,468.68c2.82-.45,71.51-36.4,73.27-39.42.67-1.15-4-11.46-10-23.75l-44.35,23S224.6,454.08,223,457.6,223,469.13,225.79,468.68Z" style="fill:#00318E"></path><path d="M225.34,465.42c11.36-6.31,57.81-30.68,69.52-36.05.1-.05.13,0,0,.07-11.13,6.5-57.77,30.49-69.47,36.17C225.19,465.73,225.1,465.55,225.34,465.42Z" style="fill:#263238"></path><path d="M226.16,452.82a10.43,10.43,0,0,1,8.36-.79,10.1,10.1,0,0,1,5.79,4.8c0,.07-.09.14-.14.07A12.09,12.09,0,0,0,226.23,453,.08.08,0,0,1,226.16,452.82Z" style="fill:#263238"></path><path d="M240.88,432c4.57-2.47,10.77-3.64,15.6-1.37.19.09.06.35-.11.35a72.62,72.62,0,0,0-15.27,1.63A.33.33,0,0,1,240.88,432Z" style="fill:#263238"></path><path d="M238.05,435.28c4.57-2.47,10.77-3.64,15.6-1.37.19.09.06.35-.11.35a72.78,72.78,0,0,0-15.28,1.63A.33.33,0,0,1,238.05,435.28Z" style="fill:#263238"></path><path d="M235.21,438.53c4.58-2.47,10.77-3.64,15.61-1.37.19.09.06.35-.11.35a72.12,72.12,0,0,0-15.28,1.63A.33.33,0,0,1,235.21,438.53Z" style="fill:#263238"></path><path d="M232.38,441.78c4.58-2.48,10.77-3.64,15.61-1.37.19.08.06.35-.12.35a71.39,71.39,0,0,0-15.27,1.63A.33.33,0,0,1,232.38,441.78Z" style="fill:#263238"></path><path d="M286.21,420c5.17-2.7,9.36,5.35,4.18,8S281,422.66,286.21,420Z" style="fill:#263238"></path><path d="M233.37,428.9c4.16,1.91,9,2,13.48,2.5a.63.63,0,0,0,.63-.8.15.15,0,0,0,.08-.21,27.29,27.29,0,0,0-10.36-9.59c-2.49-1.26-6.42-1.61-7.74,1.54C228.21,425.33,230.93,427.79,233.37,428.9Zm-2.22-3.7c-2.16-5.26,4.38-3.77,6.18-2.77a29.05,29.05,0,0,1,3.31,2.23,82,82,0,0,1,6.17,5.47c-2.18-.41-4.38-.63-6.57-.95C237.63,428.79,232.35,428.1,231.15,425.2Z" style="fill:#263238"></path><path d="M262.38,418.89c-1.93-2.82-5.71-1.68-7.89.06a27.35,27.35,0,0,0-8.18,11.5c0,.1,0,.17.12.19a.63.63,0,0,0,.78.66c4.26-1.45,9-2.48,12.69-5.19C262.06,424.52,264.22,421.55,262.38,418.89Zm-9.16,8.89c-2.08.76-4.18,1.42-6.23,2.26a79.3,79.3,0,0,1,4.93-6.61,30,30,0,0,1,2.78-2.86c1.56-1.34,7.66-4.13,6.61,1.46C260.73,425.11,255.7,426.86,253.22,427.78Z" style="fill:#263238"></path><path d="M288.3,391.15l-52.11,22.61s-5.34-4.72-7-17.2c-4-29.24-6.22-85.51-3.86-111.55,2.28-25.25,34.7-59.23,50.32-81.9.91-1.31,3.57-16.12,3.57-16.12h42.94l-.67,32.35c-1,19.67-45.23,59.62-45.63,71.39-.31,9.16,9.83,54.31,13.61,80.86C291.07,383.16,288.3,391.15,288.3,391.15Z" style="fill:#455a64"></path><path d="M237.09,400.63c11.88-6.19,44.15-19.79,45.88-20.21.11,0,.19.14.11.2-1.28.88-31.77,15.4-45.91,20.17C237.07,400.83,237,400.68,237.09,400.63Z" style="fill:#263238"></path><path d="M311.34,226.94c-.4.78-.83,1.55-1.3,2.31a90.57,90.57,0,0,1-5.49,7.61L298.32,245c-4.15,5.4-8.25,10.83-12.42,16.22-4,5.21-8.13,10.39-12,15.71a36.58,36.58,0,0,0-4.5,7.65,26.76,26.76,0,0,0-1.85,8.78c-.32,6.39.88,12.89,1.67,19.22q1.26,10,2.7,20t3.05,20c1,6.53,1.95,13.16,3.38,19.63.37,1.66.66,3.35,1,5,0,.09.17.06.16,0q-3-19.92-5.82-39.91c-.92-6.67-1.78-13.34-2.64-20-.83-6.49-1.87-13-2.23-19.55a33.46,33.46,0,0,1,.6-9.42,25.09,25.09,0,0,1,3.81-8.27c1.76-2.63,3.77-5.14,5.72-7.64,2.09-2.69,4.13-5.41,6.21-8.11q6.23-8.1,12.43-16.2c4-5.18,8.08-10.27,11.82-15.6a35.45,35.45,0,0,0,4.35-7.91,34.66,34.66,0,0,0,1.89-8.65c.66-6.46.3-13,.18-19.5q0-2.47-.12-4.95c0-.14-.2-.13-.21,0-.3,6.59-.37,13.17-.63,19.76a48.52,48.52,0,0,1-1.18,9.53,28.32,28.32,0,0,1-2.33,6.21" style="fill:#263238"></path><path d="M232.92,285.65c2.52.1,5.05,0,7.56.34a32.29,32.29,0,0,0,3.65.39c1.26,0,2.53-.07,3.78-.12a47.11,47.11,0,0,0,7.4-.57,49,49,0,0,1,7.6-1.09c.1,0,.1-.2,0-.2a44.52,44.52,0,0,1-7.55-.6,30.47,30.47,0,0,0-5.23-.18,21.17,21.17,0,0,0,3.25-.45c1.78-.41,3.56-.85,5.36-1.09.1,0,.1-.2,0-.2a37.94,37.94,0,0,1-5.21-.48l-.75-.09c.62,0,1.23-.08,1.85-.17.89-.12,1.78-.31,2.67-.44l1.22-.17h.19v0a1,1,0,0,0,1-.2.08.08,0,0,0,0-.14c-1.71-.23-3.4-.57-5.11-.82a48.13,48.13,0,0,0-5.23-.31,37,37,0,0,0-10.17.75c-.3.07-.3.72,0,.79a29.69,29.69,0,0,0,4.36.68l-.27,0c-1.7.23-3.4.68-5.09,1-.09,0-.09.21,0,.23a45,45,0,0,0,5,1.1c.53.07,1.07.09,1.62.11l-.67,0a27.61,27.61,0,0,0-3.58.61c-2.52.5-5.1.58-7.64.84C232.74,285.28,232.73,285.64,232.92,285.65Z" style="fill:#ffc4c0"></path><path d="M250.26,272.85c-1.7-.17-3.42-.17-5.11-.39a19,19,0,0,0-5-.16c-3.37.47-6.63,1.7-10,2.09-.09,0-.09.22,0,.21,3.37-.4,6.72.19,10.09.16a24,24,0,0,0,4.95-.78c1.68-.38,3.38-.53,5.07-.8A.17.17,0,0,0,250.26,272.85Z" style="fill:#ffc4c0"></path><path d="M265,290.77c-3.13-.62-6.19-1.7-9.31-2.27a15.71,15.71,0,0,0-4.54-.12c-1.63.17-3.24.6-4.88.65-.1,0-.11.19,0,.2a30.73,30.73,0,0,1,4.71,1,20.3,20.3,0,0,0,4.64.61A77.28,77.28,0,0,1,265,291C265.1,291,265.11,290.8,265,290.77Z" style="fill:#ffc4c0"></path><path d="M279.12,311.41c-.52-2.73,10.42-79.3,12.63-81.88.24-.31,25.69,2.56,25.69,2.56,1.31.59,39.93-4.36,39.93-4.36l-.76,49L309,281.46s-5.76,9.74-11.3,18.16l0,0c-3.41,5.19-6.48,9.68-7.51,10.67C287.43,312.87,279.61,314.14,279.12,311.41Z" style="fill:#ffc4c0"></path><path d="M326.38,231.44l-7.06,49-10.34,1s-5.76,9.75-11.3,18.17c0,0,0,0,0,0-3.4,5.2-6.48,9.69-7.51,10.68-2.72,2.57-10.54,3.83-11,1.1s10.42-79.29,12.63-81.89c.25-.3,25.69,2.57,25.69,2.57C317.82,232.26,321.46,232,326.38,231.44Z" style="fill:#ebebeb"></path><path d="M278.79,311.69c-.51-2.81,10.62-79.45,12.89-82.1.86-1,12.84-.45,25.76,2.5l-7.24,49.4S292.94,308,290.14,310.62,279.29,314.5,278.79,311.69Z" style="fill:#00318E"></path><path d="M282,311c2.18-12.81,9.77-64.64,11-77.46,0-.11-.06-.12-.08,0-2.44,12.65-9.61,64.54-11.09,77.45C281.77,311.28,282,311.31,282,311Z" style="fill:#263238"></path><path d="M293.61,306.09a10.42,10.42,0,0,0-2-8.14,10.1,10.1,0,0,0-6.44-3.87c-.08,0-.1.13,0,.16a12,12,0,0,1,8.32,11.83A.08.08,0,0,0,293.61,306.09Z" style="fill:#263238"></path><path d="M308.33,285.33c.82-5.13-.13-11.35-3.87-15.16-.15-.15-.36.06-.3.23a71.29,71.29,0,0,1,3.52,14.93A.33.33,0,0,0,308.33,285.33Z" style="fill:#263238"></path><path d="M306.2,289.08c.82-5.13-.13-11.36-3.87-15.16-.14-.15-.35.06-.29.22a72.16,72.16,0,0,1,3.52,14.94A.32.32,0,0,0,306.2,289.08Z" style="fill:#263238"></path><path d="M304.08,292.82c.82-5.13-.13-11.35-3.87-15.16-.15-.15-.35.06-.3.23a71.29,71.29,0,0,1,3.52,14.93A.33.33,0,0,0,304.08,292.82Z" style="fill:#263238"></path><path d="M302,296.57c.81-5.13-.13-11.36-3.88-15.16-.14-.15-.35.06-.29.22a72.16,72.16,0,0,1,3.52,14.94A.33.33,0,0,0,302,296.57Z" style="fill:#263238"></path><path d="M304.7,238.62c.82-5.77-8.15-7.06-9-1.28S303.87,244.4,304.7,238.62Z" style="fill:#263238"></path><path d="M321.24,292.89c2.54-2.29.91-5.88-1.1-7.81a27.21,27.21,0,0,0-12.47-6.58.13.13,0,0,0-.17.14.62.62,0,0,0-.55.86c2,4,3.64,8.59,6.82,11.88C315.62,293.3,318.84,295.05,321.24,292.89Zm-10-7.9c-1-2-2-4-3.07-5.87a81.46,81.46,0,0,1,7.2,4,29.82,29.82,0,0,1,3.2,2.38c1.53,1.37,5.1,7-.57,6.74C314.86,292.07,312.46,287.32,311.23,285Z" style="fill:#263238"></path><path d="M307.62,265.44c-1.34,4.38-.74,9.19-.69,13.68a.64.64,0,0,0,.88.53.13.13,0,0,0,.21,0,27.27,27.27,0,0,0,8.13-11.52c.92-2.63.75-6.57-2.55-7.46C310.48,259.87,308.4,262.89,307.62,265.44Zm3.37-2.67c4.92-2.84,4.32,3.83,3.56,5.74a29.55,29.55,0,0,1-1.76,3.57c-1.36,2.41-3,4.58-4.61,6.84.12-2.22,0-4.42.08-6.63C308.29,269.65,308.28,264.33,311,262.77Z" style="fill:#263238"></path><path d="M306.28,187h31.29s1.8,12,4.76,13.36c8.78,4.14,46.56,9.26,68.76,21,19.1,10.11,21.43,34-4.52,43.93-21.83,8.38-48.86,17.07-66.11,19-10.87,1.22-17.55-3-17.55-3l2.84-52.18s35.11-4,61.74-3.34c0,0-27.12,7.44-57.19,2.28-6.87-1.18-14.51-4.6-21.32-7.13Z" style="fill:#455a64"></path><path d="M332.42,276c.26-2.94.25-5.92.36-8.87l.36-8.87c.24-5.9,1.62-26,2-27.57,0-.1.18-.08.19,0,.17,1.41-.4,14.57-.57,17.52-.34,5.91-.85,11.79-1.31,17.69-.13,1.68-.3,3.36-.45,5s-.35,3.37-.41,5.06C332.57,276.08,332.41,276.06,332.42,276Z" style="fill:#263238"></path><path d="M400.36,225.39a146.2,146.2,0,0,0-16.86-.94c2.16-.48,4.34-.86,6.51-1.2.12,0,.13-.21,0-.2a41.57,41.57,0,0,0-7.54,1.39c-3.72,0-7.45.13-11.17.32-9.73.51-19.43,1.42-29.13,2.38q-8.27.81-16.52,1.68a.48.48,0,0,0-.46.48c0,1.44.11,2.88.16,4.32a.29.29,0,0,0,.57,0c.06-1.3.15-2.6.19-3.89q14.37-1.2,28.73-2.46c9.71-.83,19.42-1.44,29.16-1.67,5.45-.13,10.89-.14,16.35,0A.1.1,0,0,0,400.36,225.39Z" style="fill:#263238"></path><path d="M402.4,228.93c-8.49,0-17,.22-25.43.82s-16.75,1.39-25.07,2.54q-3.45.47-6.89,1c-2.34.37-4.66.85-7,1.26-.09,0-.06.17,0,.16,4.19-.57,8.41-1,12.61-1.49s8.25-1,12.39-1.37q12.54-1.23,25.12-2c4.74-.28,9.49-.58,14.24-.76C402.53,229.11,402.52,228.93,402.4,228.93Z" style="fill:#263238"></path><path d="M302.33,217.74a82.19,82.19,0,0,1,13.41,5.47.15.15,0,0,1-.11.28c-4.51-1.68-9.1-3.28-13.51-5.21A.29.29,0,0,1,302.33,217.74Z" style="fill:#263238"></path><path d="M299.36,187.25c0-.15.27-.2.28,0,.24,5.29.81,9.92,1.5,14.84.33,2.28,2.81,14.86,6.7,13.73.65-.19,1-.86,1-1.87a16.21,16.21,0,0,0-.72-3.86c-.57-2.63-1.06-5.28-1.43-7.94a74.64,74.64,0,0,1-.61-15,.13.13,0,0,1,.26,0,138.78,138.78,0,0,0,2.26,20.64c.66,3.27,2.56,8.15-.83,8.84s-6.12-7.5-6.66-9.75A77.18,77.18,0,0,1,299.36,187.25Z" style="fill:#263238"></path><path d="M307.75,216.14a21.28,21.28,0,0,1,1,2.58,6.11,6.11,0,0,1,.48,2.14c0,.14-.19.16-.27.07a7.42,7.42,0,0,1-1-2.05c-.35-.8-.7-1.59-1-2.39A.44.44,0,0,1,307.75,216.14Z" style="fill:#263238"></path><path d="M407.9,238.87a48.51,48.51,0,0,1,1.8,4.92,14,14,0,0,0,.65,2.42c.35.81.77,1.61,1.17,2.41a26.6,26.6,0,0,0,2.62,4.64,29.07,29.07,0,0,1,3.18,4.68c0,.06.22,0,.19,0a22.07,22.07,0,0,1-1.55-5,14.66,14.66,0,0,0-1.29-3.4,12.62,12.62,0,0,0,1.35,2,39.63,39.63,0,0,1,2.55,3.23c0,.06.22,0,.19,0a18,18,0,0,1-1-3.44c0-.17-.08-.33-.12-.5a12.39,12.39,0,0,0,.67,1.16c.37.55.8,1.08,1.18,1.63l.5.75.06.12h0c0,.27.13.47.49.63.05,0,.12,0,.12,0-.25-1.14-.4-2.29-.64-3.43a24.23,24.23,0,0,0-1.17-3.42,20.66,20.66,0,0,0-3.57-6.39c-.15-.18-.78-.06-.76.14a12.77,12.77,0,0,0,.57,2.93l-.1-.17c-.7-1-1.6-2.06-2.42-3.08-.05-.05-.23,0-.23,0a21.4,21.4,0,0,0,.34,3.39,8.22,8.22,0,0,0,.35,1.06l-.21-.42a16.7,16.7,0,0,0-1.58-2.18,47.14,47.14,0,0,1-3-4.75C408.2,238.68,407.86,238.75,407.9,238.87Z" style="fill:#ffc4c0"></path><path d="M423.1,246c-.3-1.12-.79-2.22-1.06-3.36a9.36,9.36,0,0,0-1.24-3.23c-1.39-2.07-3.49-3.94-4.81-6,0-.06-.23,0-.19,0,1.32,2.09,1.69,4.35,2.67,6.51a13.63,13.63,0,0,0,2.14,3c.83,1,1.45,2.08,2.19,3.11C422.87,246.21,423.13,246.15,423.1,246Z" style="fill:#ffc4c0"></path><path d="M298.71,189a3.76,3.76,0,0,1,.88,1.46.31.31,0,0,1-.59.16,3,3,0,0,0-.45-.87l-.06-.08s-.08-.1,0,0l-.09-.11-.09-.09a.3.3,0,1,1,.42-.44Z" style="fill:#c7c7c7"></path><path d="M300,191.69a3.72,3.72,0,0,1,.88,1.46.31.31,0,0,1-.21.37.3.3,0,0,1-.37-.21,3,3,0,0,0-.46-.87l-.06-.08s-.08-.1,0,0l-.09-.1a.43.43,0,0,0-.09-.1.3.3,0,0,1,.42-.44Z" style="fill:#c7c7c7"></path><path d="M301.56,194a3.64,3.64,0,0,1,1.32,1.08.3.3,0,0,1-.07.42.31.31,0,0,1-.43-.07,2.89,2.89,0,0,0-.72-.67l-.08-.05,0,0-.12-.07-.11-.06a.31.31,0,0,1-.16-.4.32.32,0,0,1,.4-.16Z" style="fill:#c7c7c7"></path><path d="M303.93,195.94a3.68,3.68,0,0,1,1.54.71.3.3,0,1,1-.39.46,3,3,0,0,0-.86-.46l-.09,0h0l-.13,0-.13,0a.3.3,0,0,1-.25-.34.31.31,0,0,1,.35-.25Z" style="fill:#c7c7c7"></path><path d="M306.64,197.13a3.75,3.75,0,0,1,1.64.47.31.31,0,0,1,.1.41.3.3,0,0,1-.41.11,3,3,0,0,0-.93-.33l-.1,0s-.12,0,0,0h-.26a.31.31,0,0,1-.3-.31.31.31,0,0,1,.3-.3Z" style="fill:#c7c7c7"></path><path d="M309.56,197.86a3.58,3.58,0,0,1,1.67.34.3.3,0,0,1,.13.4.31.31,0,0,1-.41.13,3.42,3.42,0,0,0-.95-.25h-.1s-.12,0,0,0h-.26a.3.3,0,0,1-.32-.28.3.3,0,0,1,.28-.32Z" style="fill:#c7c7c7"></path><path d="M312.45,198.4a3.7,3.7,0,0,1,1.68.25.31.31,0,0,1,.15.4.29.29,0,0,1-.39.16,2.91,2.91,0,0,0-1-.21h-.4a.3.3,0,0,1-.33-.27.29.29,0,0,1,.26-.33Z" style="fill:#c7c7c7"></path><path d="M315.38,198.85a3.71,3.71,0,0,1,1.68.26.3.3,0,0,1-.24.55,3.17,3.17,0,0,0-1-.21h-.09s-.13,0,0,0h-.27a.3.3,0,0,1-.33-.26.3.3,0,0,1,.26-.34Z" style="fill:#c7c7c7"></path><path d="M318.5,199.3a3.85,3.85,0,0,1,1.68.25.32.32,0,0,1,.16.4.31.31,0,0,1-.4.16,2.91,2.91,0,0,0-1-.21h-.4a.3.3,0,0,1-.07-.6Z" style="fill:#c7c7c7"></path><path d="M321.53,199.94a3.74,3.74,0,0,1,1.56.67.3.3,0,0,1,.05.42.29.29,0,0,1-.42.05,3.52,3.52,0,0,0-.89-.44l-.09,0h0l-.13,0-.12,0a.3.3,0,0,1-.26-.34.31.31,0,0,1,.34-.26Z" style="fill:#c7c7c7"></path><path d="M324.3,201.42a3.81,3.81,0,0,1,1.41,1,.31.31,0,0,1,0,.43.32.32,0,0,1-.43,0,3.06,3.06,0,0,0-.78-.6l-.08,0,0,0-.12-.06-.12,0a.3.3,0,0,1-.19-.38.31.31,0,0,1,.38-.19Z" style="fill:#c7c7c7"></path><path d="M326.73,203.24a3.65,3.65,0,0,1,1.21,1.2.3.3,0,0,1-.11.41.31.31,0,0,1-.41-.11,3.08,3.08,0,0,0-.66-.74l-.07-.06,0,0-.12-.08-.1-.07a.3.3,0,0,1-.12-.41.31.31,0,0,1,.41-.12Z" style="fill:#c7c7c7"></path><path d="M328.75,205.56a3.7,3.7,0,0,1,1.07,1.32.3.3,0,0,1-.16.4.3.3,0,0,1-.39-.16,3.16,3.16,0,0,0-.57-.8l-.07-.07,0,0-.1-.09a.39.39,0,0,0-.1-.08.31.31,0,0,1-.07-.42.3.3,0,0,1,.42-.07Z" style="fill:#c7c7c7"></path><path d="M330.62,207.93a3.72,3.72,0,0,1,1.14,1.26.31.31,0,0,1-.13.41.31.31,0,0,1-.41-.14,3.14,3.14,0,0,0-.61-.76l-.07-.07s-.1-.08,0,0l-.11-.08-.1-.08a.3.3,0,0,1-.1-.41.32.32,0,0,1,.42-.1Z" style="fill:#c7c7c7"></path><path d="M332.63,210.26a3.58,3.58,0,0,1,1.34,1,.3.3,0,0,1-.48.36,3.06,3.06,0,0,0-.74-.65l-.08,0s-.11-.07,0,0l-.12-.07-.11-.06a.3.3,0,0,1-.17-.39.3.3,0,0,1,.4-.16Z" style="fill:#c7c7c7"></path><path d="M335.06,211.92a3.63,3.63,0,0,1,1.63.48.3.3,0,1,1-.32.51,3.11,3.11,0,0,0-.93-.33l-.09,0s-.13,0,0,0h-.26a.32.32,0,0,1-.3-.31.31.31,0,0,1,.31-.3Z" style="fill:#c7c7c7"></path><path d="M337.83,212.71a3.77,3.77,0,0,1,1.63-.49.31.31,0,1,1,0,.61,3.33,3.33,0,0,0-1,.22l-.09,0s-.11,0,0,0l-.12.06-.12.06a.3.3,0,0,1-.41-.09.31.31,0,0,1,.09-.42Z" style="fill:#c7c7c7"></path><path d="M340.45,211.68a3.63,3.63,0,0,1,.95-1.42.3.3,0,0,1,.42,0,.31.31,0,0,1,0,.43,3,3,0,0,0-.59.78l-.05.09s0,.11,0,0a.61.61,0,0,0-.05.12.61.61,0,0,0-.05.12.31.31,0,0,1-.38.2.32.32,0,0,1-.2-.38Z" style="fill:#c7c7c7"></path><path d="M341.78,209a3.73,3.73,0,0,1,.29-1.68.3.3,0,0,1,.55.26,3.07,3.07,0,0,0-.23,1,.28.28,0,0,1,0,.09V209a.3.3,0,0,1-.27.33.31.31,0,0,1-.33-.27Z" style="fill:#c7c7c7"></path><path d="M342.24,206a3.74,3.74,0,0,1-.23-1.69.32.32,0,0,1,.34-.26.31.31,0,0,1,.26.34,3.31,3.31,0,0,0,.07,1l0,.09s0,.12,0,0l0,.13.05.12a.31.31,0,0,1-.16.4.32.32,0,0,1-.4-.16Z" style="fill:#c7c7c7"></path><path d="M341.84,203.05a3.81,3.81,0,0,1-.55-1.61.31.31,0,0,1,.28-.32.3.3,0,0,1,.32.28,3.28,3.28,0,0,0,.27,1l0,.08s.05.12,0,0a.75.75,0,0,0,.07.12l.06.11a.3.3,0,0,1-.08.42.31.31,0,0,1-.42-.08Z" style="fill:#c7c7c7"></path><path d="M340.81,200.13a3.77,3.77,0,0,1-.66-1.57.32.32,0,0,1,.27-.34.3.3,0,0,1,.33.26,3.23,3.23,0,0,0,.33.93l0,.09,0,0,.07.12.07.11a.29.29,0,0,1,0,.42.31.31,0,0,1-.42-.05Z" style="fill:#c7c7c7"></path><path d="M339.71,197.29a3.78,3.78,0,0,1-.81-1.5.31.31,0,0,1,.22-.36.32.32,0,0,1,.37.23,3.12,3.12,0,0,0,.41.89l.06.08,0,0,.08.11.09.1a.3.3,0,0,1-.44.42Z" style="fill:#c7c7c7"></path><path d="M338.31,194.58a3.64,3.64,0,0,1-.68-1.56.3.3,0,0,1,.26-.34.32.32,0,0,1,.34.26,3.07,3.07,0,0,0,.33.92.41.41,0,0,1,.05.09l0,0,.07.12.08.1a.31.31,0,0,1,0,.43.3.3,0,0,1-.42,0Z" style="fill:#c7c7c7"></path><path d="M337.22,191.73a3.69,3.69,0,0,1-.32-1.67.3.3,0,0,1,.6.05,3.3,3.3,0,0,0,.13,1s0,.06,0,.09,0,.12,0,0l0,.13.05.12a.3.3,0,0,1-.54.26Z" style="fill:#c7c7c7"></path><path d="M336.7,188.86a3.76,3.76,0,0,1-.15-1.7.3.3,0,0,1,.35-.24.31.31,0,0,1,.24.35,3.31,3.31,0,0,0,0,1s0,.06,0,.09,0,.12,0,0l0,.13a.56.56,0,0,0,0,.12.31.31,0,0,1-.57.22Z" style="fill:#c7c7c7"></path><path d="M336,189.42l0,.27a1,1,0,0,0,1.13.86h.08a1,1,0,0,0,.86-1.13l0-.27a1,1,0,0,0-1.13-.86h-.08A1,1,0,0,0,336,189.42Zm.42,0a.61.61,0,0,1,.52-.68H337a.6.6,0,0,1,.67.52l0,.16a.6.6,0,0,1-.51.68h-.05a.58.58,0,0,1-.67-.51Z" style="fill:#dbdbdb"></path><path d="M336.27,189.41l0,.21a.78.78,0,0,0,.88.67h.07a.78.78,0,0,0,.67-.88l0-.22a.78.78,0,0,0-.88-.67h-.06A.78.78,0,0,0,336.27,189.41Zm.14,0a.61.61,0,0,1,.52-.68H337a.6.6,0,0,1,.67.52l0,.16a.6.6,0,0,1-.51.68h-.05a.58.58,0,0,1-.67-.51Z" style="fill:#c7c7c7;opacity:0.4"></path><path d="M336.67,192.35l.07.27a1,1,0,0,0,1.23.7l.08,0a1,1,0,0,0,.71-1.23l-.07-.26a1,1,0,0,0-1.23-.71l-.08,0A1,1,0,0,0,336.67,192.35Zm.42-.06a.59.59,0,0,1,.42-.73h.05a.59.59,0,0,1,.73.42l0,.16a.6.6,0,0,1-.43.73l0,0a.62.62,0,0,1-.74-.43Z" style="fill:#dbdbdb"></path><path d="M336.94,192.31l.06.21a.79.79,0,0,0,1,.55l.06,0a.78.78,0,0,0,.55-1l-.06-.21a.79.79,0,0,0-1-.55l-.06,0A.79.79,0,0,0,336.94,192.31Zm.15,0a.59.59,0,0,1,.42-.73h.05a.59.59,0,0,1,.73.42l0,.16a.6.6,0,0,1-.43.73l0,0a.62.62,0,0,1-.74-.43Z" style="fill:#c7c7c7;opacity:0.4"></path><path d="M337.88,195.44l.12.25a1,1,0,0,0,1.34.46l.08,0a1,1,0,0,0,.46-1.34l-.12-.25a1,1,0,0,0-1.35-.46l-.07,0A1,1,0,0,0,337.88,195.44Zm.4-.14a.6.6,0,0,1,.28-.8l0,0a.6.6,0,0,1,.8.27l.08.15a.61.61,0,0,1-.28.81l0,0a.61.61,0,0,1-.81-.28Z" style="fill:#dbdbdb"></path><path d="M338.14,195.35l.09.19a.78.78,0,0,0,1,.36l.06,0a.78.78,0,0,0,.36-1.05l-.1-.19a.78.78,0,0,0-1.05-.36l-.05,0A.78.78,0,0,0,338.14,195.35Zm.14,0a.6.6,0,0,1,.28-.8l0,0a.6.6,0,0,1,.8.27l.08.15a.61.61,0,0,1-.28.81l0,0a.61.61,0,0,1-.81-.28Z" style="fill:#c7c7c7;opacity:0.4"></path><path d="M339.19,198.05l.13.24a1,1,0,0,0,1.34.46l.07,0a1,1,0,0,0,.46-1.35l-.12-.24a1,1,0,0,0-1.34-.46l-.08,0A1,1,0,0,0,339.19,198.05Zm.41-.14a.59.59,0,0,1,.27-.8l.05,0a.59.59,0,0,1,.8.27l.07.15a.6.6,0,0,1-.27.8l0,0a.59.59,0,0,1-.8-.27Z" style="fill:#dbdbdb"></path><path d="M339.46,198l.09.2a.79.79,0,0,0,1.05.35l.06,0a.79.79,0,0,0,.35-1l-.09-.19a.78.78,0,0,0-1.05-.36l-.06,0A.78.78,0,0,0,339.46,198Zm.14,0a.59.59,0,0,1,.27-.8l.05,0a.59.59,0,0,1,.8.27l.07.15a.6.6,0,0,1-.27.8l0,0a.59.59,0,0,1-.8-.27Z" style="fill:#c7c7c7;opacity:0.4"></path><path d="M340.21,200.84l.09.27a1,1,0,0,0,1.26.63l.08,0a1,1,0,0,0,.64-1.27l-.09-.26a1,1,0,0,0-1.26-.64l-.08,0A1,1,0,0,0,340.21,200.84Zm.42-.08A.58.58,0,0,1,341,200l0,0a.6.6,0,0,1,.76.38l.05.16a.6.6,0,0,1-.38.76h-.05a.58.58,0,0,1-.75-.38Z" style="fill:#dbdbdb"></path><path d="M340.48,200.79l.07.2a.79.79,0,0,0,1,.5l.06,0a.78.78,0,0,0,.49-1l-.06-.2a.78.78,0,0,0-1-.5l-.06,0A.78.78,0,0,0,340.48,200.79Zm.15,0A.58.58,0,0,1,341,200l0,0a.6.6,0,0,1,.76.38l.05.16a.6.6,0,0,1-.38.76h-.05a.58.58,0,0,1-.75-.38Z" style="fill:#c7c7c7;opacity:0.4"></path><path d="M341.16,203.75l.09.26a1,1,0,0,0,1.27.64l.08,0a1,1,0,0,0,.64-1.27l-.09-.26a1,1,0,0,0-1.27-.64l-.08,0A1,1,0,0,0,341.16,203.75Zm.42-.08a.61.61,0,0,1,.38-.76H342a.6.6,0,0,1,.76.38l.05.16a.6.6,0,0,1-.38.75l-.05,0a.61.61,0,0,1-.76-.38Z" style="fill:#dbdbdb"></path><path d="M341.44,203.69l.06.21a.79.79,0,0,0,1,.5l.06,0a.78.78,0,0,0,.5-1l-.07-.21a.79.79,0,0,0-1-.5l-.06,0A.78.78,0,0,0,341.44,203.69Zm.14,0a.61.61,0,0,1,.38-.76H342a.6.6,0,0,1,.76.38l.05.16a.6.6,0,0,1-.38.75l-.05,0a.61.61,0,0,1-.76-.38Z" style="fill:#c7c7c7;opacity:0.4"></path><path d="M341.43,206.43l0,.27a1,1,0,0,0,.91,1.09h.09a1,1,0,0,0,1.08-.92l0-.27a1,1,0,0,0-.92-1.09h-.08A1,1,0,0,0,341.43,206.43Zm.42.09a.6.6,0,0,1,.65-.55h.05a.6.6,0,0,1,.54.65v.16a.6.6,0,0,1-.65.55h-.05a.61.61,0,0,1-.55-.65Z" style="fill:#dbdbdb"></path><path d="M341.7,206.48v.22a.77.77,0,0,0,.71.84h.06a.78.78,0,0,0,.85-.71l0-.22a.78.78,0,0,0-.71-.85h-.07A.78.78,0,0,0,341.7,206.48Zm.15,0a.6.6,0,0,1,.65-.55h.05a.6.6,0,0,1,.54.65v.16a.6.6,0,0,1-.65.55h-.05a.61.61,0,0,1-.55-.65Z" style="fill:#c7c7c7;opacity:0.4"></path><path d="M341,209.18l-.1.26a1,1,0,0,0,.54,1.31l.07,0a1,1,0,0,0,1.32-.54l.1-.25a1,1,0,0,0-.54-1.31l-.07,0A1,1,0,0,0,341,209.18Zm.37.22a.6.6,0,0,1,.78-.33l0,0a.61.61,0,0,1,.32.79l-.06.15a.6.6,0,0,1-.79.32l0,0a.58.58,0,0,1-.32-.78Z" style="fill:#dbdbdb"></path><path d="M341.19,209.32l-.08.2a.78.78,0,0,0,.42,1l.06,0a.8.8,0,0,0,1-.43l.08-.19a.79.79,0,0,0-.42-1l-.06,0A.79.79,0,0,0,341.19,209.32Zm.13.08a.6.6,0,0,1,.78-.33l0,0a.61.61,0,0,1,.32.79l-.06.15a.6.6,0,0,1-.79.32l0,0a.58.58,0,0,1-.32-.78Z" style="fill:#c7c7c7;opacity:0.4"></path><path d="M339.77,211.23l-.23.15a1,1,0,0,0-.26,1.4l.05.07a1,1,0,0,0,1.4.25L341,213a1,1,0,0,0,.25-1.4l0-.07A1,1,0,0,0,339.77,211.23Zm.19.37a.61.61,0,0,1,.84.16l0,0a.61.61,0,0,1-.16.83l-.14.1a.61.61,0,0,1-.83-.16l0,0a.6.6,0,0,1,.16-.83Z" style="fill:#dbdbdb"></path><path d="M339.9,211.47l-.18.12a.79.79,0,0,0-.2,1.09l0,0a.78.78,0,0,0,1.09.2l.17-.12a.79.79,0,0,0,.21-1.09l0-.05A.78.78,0,0,0,339.9,211.47Zm.06.13a.61.61,0,0,1,.84.16l0,0a.61.61,0,0,1-.16.83l-.14.1a.61.61,0,0,1-.83-.16l0,0a.6.6,0,0,1,.16-.83Z" style="fill:#c7c7c7;opacity:0.4"></path><path d="M337.43,211.83l-.27,0a1,1,0,0,0-1.05,1v.08a1,1,0,0,0,1,1h.27a1,1,0,0,0,1-1v-.08A1,1,0,0,0,337.43,211.83Zm-.07.41a.62.62,0,0,1,.58.63v0a.61.61,0,0,1-.63.57h-.16a.62.62,0,0,1-.58-.63v-.05a.6.6,0,0,1,.63-.57Z" style="fill:#dbdbdb"></path><path d="M337.39,212.1h-.21a.78.78,0,0,0-.82.75v.07a.79.79,0,0,0,.75.81h.22a.79.79,0,0,0,.81-.75v-.07A.78.78,0,0,0,337.39,212.1Zm0,.14a.62.62,0,0,1,.58.63v0a.61.61,0,0,1-.63.57h-.16a.62.62,0,0,1-.58-.63v-.05a.6.6,0,0,1,.63-.57Z" style="fill:#c7c7c7;opacity:0.4"></path><path d="M335.17,211.11,335,211a1,1,0,0,0-1.41.19l-.05.06a1,1,0,0,0,.19,1.41l.22.17a1,1,0,0,0,1.41-.19l.05-.07A1,1,0,0,0,335.17,211.11Zm-.3.3a.6.6,0,0,1,.11.84l0,0a.59.59,0,0,1-.84.12l-.13-.1a.6.6,0,0,1-.11-.84l0,0a.59.59,0,0,1,.84-.12Z" style="fill:#dbdbdb"></path><path d="M335,211.31l-.17-.13a.79.79,0,0,0-1.1.15l0,0a.79.79,0,0,0,.15,1.1l.17.13a.79.79,0,0,0,1.1-.15l0-.05A.79.79,0,0,0,335,211.31Zm-.11.1a.6.6,0,0,1,.11.84l0,0a.59.59,0,0,1-.84.12l-.13-.1a.6.6,0,0,1-.11-.84l0,0a.59.59,0,0,1,.84-.12Z" style="fill:#c7c7c7;opacity:0.4"></path><path d="M332.92,209.33l-.18-.21a1,1,0,0,0-1.42-.07l-.06,0a1,1,0,0,0-.08,1.42l.19.21a1,1,0,0,0,1.42.07l.06-.05A1,1,0,0,0,332.92,209.33Zm-.35.24a.6.6,0,0,1,0,.85l0,0a.6.6,0,0,1-.85,0l-.11-.12a.6.6,0,0,1,.05-.85l0,0a.59.59,0,0,1,.84,0Z" style="fill:#dbdbdb"></path><path d="M332.7,209.49l-.14-.16a.79.79,0,0,0-1.11-.06l-.05,0a.79.79,0,0,0-.06,1.11l.15.16a.78.78,0,0,0,1.1.06l.05,0A.79.79,0,0,0,332.7,209.49Zm-.13.08a.6.6,0,0,1,0,.85l0,0a.6.6,0,0,1-.85,0l-.11-.12a.6.6,0,0,1,.05-.85l0,0a.59.59,0,0,1,.84,0Z" style="fill:#c7c7c7;opacity:0.4"></path><path d="M330.91,207.11l-.17-.21a1,1,0,0,0-1.41-.15l-.07.05a1,1,0,0,0-.14,1.41l.17.22a1,1,0,0,0,1.41.15l.07-.05A1,1,0,0,0,330.91,207.11Zm-.36.23a.59.59,0,0,1-.09.84l0,0a.6.6,0,0,1-.85-.09l-.1-.13a.59.59,0,0,1,.09-.84l0,0a.6.6,0,0,1,.85.09Z" style="fill:#dbdbdb"></path><path d="M330.68,207.26l-.13-.16a.78.78,0,0,0-1.1-.12l-.05,0a.78.78,0,0,0-.12,1.1l.14.17a.78.78,0,0,0,1.1.11l.05,0A.79.79,0,0,0,330.68,207.26Zm-.13.08a.59.59,0,0,1-.09.84l0,0a.6.6,0,0,1-.85-.09l-.1-.13a.59.59,0,0,1,.09-.84l0,0a.6.6,0,0,1,.85.09Z" style="fill:#c7c7c7;opacity:0.4"></path><path d="M329.06,204.6l-.19-.2a1,1,0,0,0-1.42-.05l-.06.05a1,1,0,0,0-.05,1.42l.19.21a1,1,0,0,0,1.42.05L329,206A1,1,0,0,0,329.06,204.6Zm-.35.25a.6.6,0,0,1,0,.85l0,0a.61.61,0,0,1-.85,0l-.11-.12a.59.59,0,0,1,0-.85l0,0a.59.59,0,0,1,.85,0Z" style="fill:#dbdbdb"></path><path d="M328.84,204.77l-.15-.16a.79.79,0,0,0-1.11,0l0,0a.78.78,0,0,0,0,1.11l.14.16a.8.8,0,0,0,1.11,0l.05,0A.79.79,0,0,0,328.84,204.77Zm-.13.08a.6.6,0,0,1,0,.85l0,0a.61.61,0,0,1-.85,0l-.11-.12a.59.59,0,0,1,0-.85l0,0a.59.59,0,0,1,.85,0Z" style="fill:#c7c7c7;opacity:0.4"></path><path d="M326.87,202.31l-.23-.16a1,1,0,0,0-1.4.21l-.05.07a1,1,0,0,0,.22,1.4l.22.17a1,1,0,0,0,1.4-.22l.05-.06A1,1,0,0,0,326.87,202.31Zm-.3.31a.59.59,0,0,1,.13.84l0,0a.61.61,0,0,1-.84.13l-.13-.1a.6.6,0,0,1-.13-.84l0,0a.6.6,0,0,1,.84-.13Z" style="fill:#dbdbdb"></path><path d="M326.68,202.52l-.18-.13a.77.77,0,0,0-1.09.17l0,.05a.78.78,0,0,0,.17,1.09l.18.13a.77.77,0,0,0,1.09-.17l0,0A.78.78,0,0,0,326.68,202.52Zm-.11.1a.59.59,0,0,1,.13.84l0,0a.61.61,0,0,1-.84.13l-.13-.1a.6.6,0,0,1-.13-.84l0,0a.6.6,0,0,1,.84-.13Z" style="fill:#c7c7c7;opacity:0.4"></path><path d="M324.25,200.46l-.25-.12a1,1,0,0,0-1.35.44l0,.07a1,1,0,0,0,.44,1.35l.25.13a1,1,0,0,0,1.35-.45l0-.07A1,1,0,0,0,324.25,200.46Zm-.24.35a.61.61,0,0,1,.26.81l0,0a.6.6,0,0,1-.81.27l-.15-.08A.61.61,0,0,1,323,201l0,0a.6.6,0,0,1,.81-.26Z" style="fill:#dbdbdb"></path><path d="M324.09,200.69l-.19-.09a.77.77,0,0,0-1,.34l0,.06a.79.79,0,0,0,.35,1.05l.19.1a.79.79,0,0,0,1.05-.35l0-.05A.8.8,0,0,0,324.09,200.69Zm-.08.12a.61.61,0,0,1,.26.81l0,0a.6.6,0,0,1-.81.27l-.15-.08A.61.61,0,0,1,323,201l0,0a.6.6,0,0,1,.81-.26Z" style="fill:#c7c7c7;opacity:0.4"></path><path d="M321.3,199.05,321,199a1,1,0,0,0-1.22.72l0,.08a1,1,0,0,0,.72,1.23l.27.06a1,1,0,0,0,1.22-.72l0-.08A1,1,0,0,0,321.3,199.05Zm-.16.39a.61.61,0,0,1,.43.73v.05a.59.59,0,0,1-.73.43l-.16,0a.59.59,0,0,1-.43-.73v0a.6.6,0,0,1,.73-.43Z" style="fill:#dbdbdb"></path><path d="M321.2,199.31l-.21-.06a.79.79,0,0,0-.95.57l0,.06a.78.78,0,0,0,.57,1l.2.06a.8.8,0,0,0,1-.57v-.06A.78.78,0,0,0,321.2,199.31Zm-.06.13a.61.61,0,0,1,.43.73v.05a.59.59,0,0,1-.73.43l-.16,0a.59.59,0,0,1-.43-.73v0a.6.6,0,0,1,.73-.43Z" style="fill:#c7c7c7;opacity:0.4"></path><path d="M318,198.38h-.28a1,1,0,0,0-1.05,1v.08a1,1,0,0,0,1,1.05h.28a1,1,0,0,0,1.05-1v-.08A1,1,0,0,0,318,198.38Zm-.08.42a.6.6,0,0,1,.57.63v0a.6.6,0,0,1-.63.57h-.16a.6.6,0,0,1-.57-.63v0a.61.61,0,0,1,.63-.57Z" style="fill:#dbdbdb"></path><path d="M317.93,198.66h-.21a.78.78,0,0,0-.82.74v.06a.78.78,0,0,0,.74.82h.22a.78.78,0,0,0,.82-.74v-.07A.77.77,0,0,0,317.93,198.66Zm0,.14a.6.6,0,0,1,.57.63v0a.6.6,0,0,1-.63.57h-.16a.6.6,0,0,1-.57-.63v0a.61.61,0,0,1,.63-.57Z" style="fill:#c7c7c7;opacity:0.4"></path><path d="M315,198.06h-.27a1,1,0,0,0-1.05,1v.08a1,1,0,0,0,1,1h.28a1,1,0,0,0,1.05-1v-.09A1,1,0,0,0,315,198.06Zm-.07.42a.61.61,0,0,1,.57.63v0a.6.6,0,0,1-.63.57h-.17a.59.59,0,0,1-.57-.62v0a.6.6,0,0,1,.62-.58Z" style="fill:#dbdbdb"></path><path d="M314.91,198.34h-.22a.77.77,0,0,0-.81.74v.07a.79.79,0,0,0,.75.82h.21a.78.78,0,0,0,.82-.75v-.06A.79.79,0,0,0,314.91,198.34Zm0,.14a.61.61,0,0,1,.57.63v0a.6.6,0,0,1-.63.57h-.17a.59.59,0,0,1-.57-.62v0a.6.6,0,0,1,.62-.58Z" style="fill:#c7c7c7;opacity:0.4"></path><path d="M312.15,197.52l-.27,0a1,1,0,0,0-1.14.85v.08a1,1,0,0,0,.85,1.13l.27,0a1,1,0,0,0,1.14-.85v-.08A1,1,0,0,0,312.15,197.52Zm-.12.41a.6.6,0,0,1,.51.68v0a.6.6,0,0,1-.68.51l-.17,0a.61.61,0,0,1-.51-.68v-.05a.6.6,0,0,1,.68-.51Z" style="fill:#dbdbdb"></path><path d="M312.08,197.79l-.21,0a.79.79,0,0,0-.89.67v.06a.78.78,0,0,0,.66.88l.22,0a.78.78,0,0,0,.88-.67v-.06A.78.78,0,0,0,312.08,197.79Zm-.05.14a.6.6,0,0,1,.51.68v0a.6.6,0,0,1-.68.51l-.17,0a.61.61,0,0,1-.51-.68v-.05a.6.6,0,0,1,.68-.51Z" style="fill:#c7c7c7;opacity:0.4"></path><path d="M309.3,197,309,197a1,1,0,0,0-1.2.75l0,.08a1,1,0,0,0,.75,1.21l.27.06a1,1,0,0,0,1.21-.75v-.08A1,1,0,0,0,309.3,197Zm-.15.39a.6.6,0,0,1,.45.72v.05a.61.61,0,0,1-.72.45l-.16,0a.61.61,0,0,1-.45-.72v0a.6.6,0,0,1,.72-.44Z" style="fill:#dbdbdb"></path><path d="M309.21,197.29l-.21,0a.78.78,0,0,0-.94.58v.07a.78.78,0,0,0,.58.94l.21,0a.78.78,0,0,0,.94-.58l0-.06A.79.79,0,0,0,309.21,197.29Zm-.06.13a.6.6,0,0,1,.45.72v.05a.61.61,0,0,1-.72.45l-.16,0a.61.61,0,0,1-.45-.72v0a.6.6,0,0,1,.72-.44Z" style="fill:#c7c7c7;opacity:0.4"></path><path d="M306.63,196.2l-.25-.11a1,1,0,0,0-1.34.47l0,.08a1,1,0,0,0,.48,1.33l.25.12a1,1,0,0,0,1.34-.48l0-.07A1,1,0,0,0,306.63,196.2Zm-.24.36a.6.6,0,0,1,.29.8l0,0a.6.6,0,0,1-.8.29l-.15-.07a.59.59,0,0,1-.28-.8l0,0a.61.61,0,0,1,.8-.28Z" style="fill:#dbdbdb"></path><path d="M306.48,196.44l-.19-.09a.79.79,0,0,0-1.05.37l0,.06a.78.78,0,0,0,.37,1l.19.09a.79.79,0,0,0,1.05-.37l0-.06A.77.77,0,0,0,306.48,196.44Zm-.09.12a.6.6,0,0,1,.29.8l0,0a.6.6,0,0,1-.8.29l-.15-.07a.59.59,0,0,1-.28-.8l0,0a.61.61,0,0,1,.8-.28Z" style="fill:#c7c7c7;opacity:0.4"></path><path d="M304.05,195.07l-.21-.18a1,1,0,0,0-1.41.13l-.06.06a1,1,0,0,0,.13,1.42l.21.17a1,1,0,0,0,1.42-.13l.05-.06A1,1,0,0,0,304.05,195.07Zm-.31.28a.61.61,0,0,1,.08.85l0,0a.6.6,0,0,1-.85.07l-.13-.1a.6.6,0,0,1-.07-.85l0,0a.59.59,0,0,1,.84-.08Z" style="fill:#dbdbdb"></path><path d="M303.85,195.26l-.16-.14a.79.79,0,0,0-1.11.1l0,.05a.79.79,0,0,0,.1,1.1l.17.14a.78.78,0,0,0,1.1-.1l0,0A.78.78,0,0,0,303.85,195.26Zm-.11.09a.61.61,0,0,1,.08.85l0,0a.6.6,0,0,1-.85.07l-.13-.1a.6.6,0,0,1-.07-.85l0,0a.59.59,0,0,1,.84-.08Z" style="fill:#c7c7c7;opacity:0.4"></path><path d="M301.89,193.24l-.17-.22a1,1,0,0,0-1.42-.16l-.06.06a1,1,0,0,0-.16,1.41l.17.21a1,1,0,0,0,1.41.16l.07,0A1,1,0,0,0,301.89,193.24Zm-.37.22a.59.59,0,0,1-.09.84l0,0a.59.59,0,0,1-.84-.09l-.11-.13a.6.6,0,0,1,.1-.84l0,0a.6.6,0,0,1,.84.1Z" style="fill:#dbdbdb"></path><path d="M301.65,193.39l-.13-.17a.78.78,0,0,0-1.1-.12l-.05,0a.77.77,0,0,0-.12,1.09l.13.17a.78.78,0,0,0,1.1.13l0,0A.78.78,0,0,0,301.65,193.39Zm-.13.07a.59.59,0,0,1-.09.84l0,0a.59.59,0,0,1-.84-.09l-.11-.13a.6.6,0,0,1,.1-.84l0,0a.6.6,0,0,1,.84.1Z" style="fill:#c7c7c7;opacity:0.4"></path><path d="M300.54,191l-.11-.26a1,1,0,0,0-1.31-.55l-.07,0a1,1,0,0,0-.56,1.31l.11.25a1,1,0,0,0,1.31.56l.07,0A1,1,0,0,0,300.54,191Zm-.42.1a.59.59,0,0,1-.33.78l0,0a.59.59,0,0,1-.78-.33l-.06-.15a.59.59,0,0,1,.33-.78l0,0a.59.59,0,0,1,.78.33Z" style="fill:#dbdbdb"></path><path d="M300.27,191.08l-.08-.2a.78.78,0,0,0-1-.43l-.06,0a.79.79,0,0,0-.43,1l.08.2a.78.78,0,0,0,1,.43l.06,0A.78.78,0,0,0,300.27,191.08Zm-.15,0a.59.59,0,0,1-.33.78l0,0a.59.59,0,0,1-.78-.33l-.06-.15a.59.59,0,0,1,.33-.78l0,0a.59.59,0,0,1,.78.33Z" style="fill:#c7c7c7;opacity:0.4"></path><path d="M337.19,187a4.06,4.06,0,0,1,.17,1.83.33.33,0,0,1-.38.27.34.34,0,0,1-.27-.38,3.5,3.5,0,0,0,0-1.07.44.44,0,0,0,0-.1s0-.13,0,0l0-.14a.74.74,0,0,1,0-.14.33.33,0,0,1,.19-.42.34.34,0,0,1,.42.19Z" style="fill:#dbdbdb"></path><path d="M336.74,188.94a.31.31,0,0,0,.24.19.33.33,0,0,0,.38-.27,4.06,4.06,0,0,0-.17-1.83.36.36,0,0,0-.21-.19h0a4.11,4.11,0,0,1,.17,1.84.34.34,0,0,1-.38.26Z" style="fill:#c7c7c7;opacity:0.4"></path><path d="M337.53,189.87a4,4,0,0,1,.34,1.81.33.33,0,1,1-.65-.06,3.78,3.78,0,0,0-.13-1.05l0-.1s-.05-.13,0,0a.58.58,0,0,0-.05-.14.5.5,0,0,0-.05-.13.34.34,0,0,1,.15-.44.33.33,0,0,1,.44.15Z" style="fill:#dbdbdb"></path><path d="M337.26,191.81a.36.36,0,0,0,.26.17.34.34,0,0,0,.35-.3,4,4,0,0,0-.34-1.81.33.33,0,0,0-.23-.17h0a3.9,3.9,0,0,1,.34,1.81.33.33,0,0,1-.35.3Z" style="fill:#c7c7c7;opacity:0.4"></path><path d="M338.2,192.7a4,4,0,0,1,.73,1.68.33.33,0,0,1-.28.37.33.33,0,0,1-.37-.27,3.39,3.39,0,0,0-.36-1l-.05-.09s-.07-.12,0,0l-.08-.13a1,1,0,0,0-.08-.11.33.33,0,0,1,.51-.41Z" style="fill:#dbdbdb"></path><path d="M338.37,194.65a.29.29,0,0,0,.28.1.33.33,0,0,0,.28-.37,4,4,0,0,0-.73-1.68.31.31,0,0,0-.26-.12h0a4,4,0,0,1,.74,1.69.34.34,0,0,1-.28.37Z" style="fill:#c7c7c7;opacity:0.4"></path><path d="M339.44,195.42a4,4,0,0,1,.88,1.61.35.35,0,0,1-.25.4.34.34,0,0,1-.39-.25,3.24,3.24,0,0,0-.45-1l-.06-.09,0,0-.09-.12-.09-.11a.32.32,0,0,1,0-.46.33.33,0,0,1,.46,0Z" style="fill:#dbdbdb"></path><path d="M339.78,197.35a.34.34,0,0,0,.29.08.35.35,0,0,0,.25-.4,4,4,0,0,0-.88-1.61.31.31,0,0,0-.27-.1h0a4,4,0,0,1,.88,1.62.33.33,0,0,1-.24.39Z" style="fill:#c7c7c7;opacity:0.4"></path><path d="M340.73,198.24a3.92,3.92,0,0,1,.7,1.7.32.32,0,0,1-.28.36.32.32,0,0,1-.36-.28,3.47,3.47,0,0,0-.35-1l-.05-.09s-.07-.12,0,0l-.08-.12-.08-.12a.32.32,0,0,1,.06-.45.34.34,0,0,1,.46.05Z" style="fill:#dbdbdb"></path><path d="M340.87,200.2a.32.32,0,0,0,.28.1.32.32,0,0,0,.28-.36,3.92,3.92,0,0,0-.7-1.7.32.32,0,0,0-.25-.12h0a3.94,3.94,0,0,1,.71,1.7.32.32,0,0,1-.28.36Z" style="fill:#c7c7c7;opacity:0.4"></path><path d="M341.88,201.16a3.9,3.9,0,0,1,.6,1.74.33.33,0,0,1-.31.35.33.33,0,0,1-.34-.31,3.39,3.39,0,0,0-.29-1,.3.3,0,0,0,0-.1l0,0-.07-.13a.75.75,0,0,0-.07-.12.33.33,0,0,1,.54-.37Z" style="fill:#dbdbdb"></path><path d="M341.9,203.12a.31.31,0,0,0,.27.13.33.33,0,0,0,.31-.35,3.94,3.94,0,0,0-.6-1.74.29.29,0,0,0-.24-.13h0a4,4,0,0,1,.59,1.74.32.32,0,0,1-.3.34Z" style="fill:#c7c7c7;opacity:0.4"></path><path d="M342.65,204.2a4,4,0,0,1,.25,1.82.34.34,0,0,1-.37.28.33.33,0,0,1-.28-.37,3.45,3.45,0,0,0-.08-1.06s0-.07,0-.1,0-.14,0-.05,0-.09-.05-.14a.93.93,0,0,0,0-.13.33.33,0,0,1,.17-.43.34.34,0,0,1,.43.18Z" style="fill:#dbdbdb"></path><path d="M342.28,206.12a.36.36,0,0,0,.25.18.34.34,0,0,0,.37-.28,4,4,0,0,0-.25-1.82.33.33,0,0,0-.21-.19v0a3.88,3.88,0,0,1,.25,1.82.34.34,0,0,1-.37.28Z" style="fill:#c7c7c7;opacity:0.4"></path><path d="M342.73,207.38a4.06,4.06,0,0,1-.32,1.82.32.32,0,0,1-.43.15.32.32,0,0,1-.16-.43,3.37,3.37,0,0,0,.25-1,.34.34,0,0,1,0-.1v-.33a.33.33,0,0,1,.29-.36.34.34,0,0,1,.36.29Z" style="fill:#dbdbdb"></path><path d="M341.8,209.11a.31.31,0,0,0,.18.24.32.32,0,0,0,.43-.15,4.06,4.06,0,0,0,.32-1.82.35.35,0,0,0-.15-.24v0a4.15,4.15,0,0,1-.31,1.81.34.34,0,0,1-.44.16Z" style="fill:#c7c7c7;opacity:0.4"></path><path d="M342,210.56a4.08,4.08,0,0,1-1,1.53.33.33,0,1,1-.43-.49,3.42,3.42,0,0,0,.65-.85l0-.09s.06-.13,0,0l.07-.13a.5.5,0,0,1,.05-.13.32.32,0,0,1,.41-.21.33.33,0,0,1,.21.41Z" style="fill:#dbdbdb"></path><path d="M340.43,211.76a.34.34,0,0,0,.07.3.33.33,0,0,0,.46,0,4.08,4.08,0,0,0,1-1.53.34.34,0,0,0,0-.28v0a4,4,0,0,1-1,1.53.33.33,0,0,1-.46,0Z" style="fill:#c7c7c7;opacity:0.4"></path><path d="M339.72,212.83a4,4,0,0,1-1.77.52.33.33,0,1,1,0-.65,3.49,3.49,0,0,0,1-.24l.09,0,0,0,.14-.06.12-.07a.33.33,0,0,1,.45.11.35.35,0,0,1-.1.45Z" style="fill:#dbdbdb"></path><path d="M337.76,212.76a.32.32,0,0,0-.14.27.33.33,0,0,0,.33.32,4,4,0,0,0,1.77-.52.32.32,0,0,0,.14-.24h0a3.91,3.91,0,0,1-1.76.52.32.32,0,0,1-.33-.32Z" style="fill:#c7c7c7;opacity:0.4"></path><path d="M336.58,213a3.94,3.94,0,0,1-1.77-.51.34.34,0,0,1-.11-.45.33.33,0,0,1,.45-.11,3.21,3.21,0,0,0,1,.36l.1,0s.13,0,0,0l.15,0h.14a.33.33,0,0,1,.32.33.32.32,0,0,1-.33.32Z" style="fill:#dbdbdb"></path><path d="M335,211.93a.31.31,0,0,0-.27.15.34.34,0,0,0,.11.45,3.94,3.94,0,0,0,1.77.51.28.28,0,0,0,.25-.12h0a3.93,3.93,0,0,1-1.76-.51.34.34,0,0,1-.11-.45Z" style="fill:#c7c7c7;opacity:0.4"></path><path d="M333.63,211.85a4,4,0,0,1-1.46-1.12.33.33,0,0,1,.53-.39,3.38,3.38,0,0,0,.8.7l.09.05s.12.07,0,0l.13.07.13.06a.35.35,0,0,1,.18.43.33.33,0,0,1-.43.17Z" style="fill:#dbdbdb"></path><path d="M332.54,210.23a.3.3,0,0,0-.3,0,.33.33,0,0,0-.07.46,4,4,0,0,0,1.46,1.12.28.28,0,0,0,.28,0h0a3.94,3.94,0,0,1-1.46-1.13.32.32,0,0,1,.07-.45Z" style="fill:#c7c7c7;opacity:0.4"></path><path d="M331.33,209.68a4,4,0,0,1-1.24-1.36.33.33,0,0,1,.59-.29,3.5,3.5,0,0,0,.66.83l.08.07s.1.09,0,0l.12.09.11.08a.33.33,0,1,1-.35.55Z" style="fill:#dbdbdb"></path><path d="M330.54,207.89a.32.32,0,0,0-.3,0,.34.34,0,0,0-.15.44,4,4,0,0,0,1.24,1.36.31.31,0,0,0,.28,0h0a3.85,3.85,0,0,1-1.24-1.36.33.33,0,0,1,.14-.44Z" style="fill:#c7c7c7;opacity:0.4"></path><path d="M329.36,207.35a3.93,3.93,0,0,1-1.15-1.44.32.32,0,1,1,.59-.26,3.54,3.54,0,0,0,.62.87l.07.08s.1.09,0,0a.52.52,0,0,1,.11.1l.11.09a.32.32,0,0,1,.08.45.34.34,0,0,1-.46.08Z" style="fill:#dbdbdb"></path><path d="M328.68,205.51a.32.32,0,0,0-.3,0,.33.33,0,0,0-.17.43,3.93,3.93,0,0,0,1.15,1.44.31.31,0,0,0,.28,0h0a3.92,3.92,0,0,1-1.15-1.43.33.33,0,0,1,.17-.43Z" style="fill:#c7c7c7;opacity:0.4"></path><path d="M327.54,205a3.94,3.94,0,0,1-1.31-1.29.33.33,0,1,1,.56-.33,3.58,3.58,0,0,0,.71.8l.08.06,0,0,.12.08.11.08a.32.32,0,0,1,.13.44.33.33,0,0,1-.44.13Z" style="fill:#dbdbdb"></path><path d="M326.65,203.2a.37.37,0,0,0-.31,0,.34.34,0,0,0-.11.45,3.94,3.94,0,0,0,1.31,1.29.31.31,0,0,0,.28,0h0a4.14,4.14,0,0,1-1.31-1.29.34.34,0,0,1,.12-.45Z" style="fill:#c7c7c7;opacity:0.4"></path><path d="M325.4,203a4,4,0,0,1-1.52-1,.33.33,0,1,1,.5-.42,3.56,3.56,0,0,0,.84.65l.09,0,0,0,.13.07.13.05a.33.33,0,1,1-.21.62Z" style="fill:#dbdbdb"></path><path d="M324.22,201.4a.32.32,0,0,0-.34.52,4,4,0,0,0,1.52,1,.34.34,0,0,0,.28,0h0a3.9,3.9,0,0,1-1.52-1,.33.33,0,0,1,0-.46Z" style="fill:#c7c7c7;opacity:0.4"></path><path d="M322.9,201.24a4,4,0,0,1-1.69-.72.33.33,0,0,1,.41-.52,3.15,3.15,0,0,0,.95.48l.1,0s.13,0,0,0l.14,0,.14,0a.33.33,0,0,1,.28.37.34.34,0,0,1-.37.28Z" style="fill:#dbdbdb"></path><path d="M321.43,199.94a.3.3,0,0,0-.27.12.33.33,0,0,0,0,.46,4,4,0,0,0,1.69.72.37.37,0,0,0,.27-.09h0a4,4,0,0,1-1.69-.71.33.33,0,0,1,0-.46Z" style="fill:#c7c7c7;opacity:0.4"></path><path d="M320.16,200.21a3.9,3.9,0,0,1-1.82-.28.32.32,0,1,1,.26-.59,3.33,3.33,0,0,0,1,.22h.43a.33.33,0,0,1,.36.29.33.33,0,0,1-.28.36Z" style="fill:#dbdbdb"></path><path d="M318.41,199.32a.31.31,0,0,0-.24.18.32.32,0,0,0,.17.43,3.9,3.9,0,0,0,1.82.28.31.31,0,0,0,.23-.15h0a3.9,3.9,0,0,1-1.82-.28.33.33,0,0,1-.17-.43S318.41,199.33,318.41,199.32Z" style="fill:#c7c7c7;opacity:0.4"></path><path d="M317,199.76a4,4,0,0,1-1.81-.27.34.34,0,0,1-.17-.44.33.33,0,0,1,.43-.16,3.33,3.33,0,0,0,1,.22H317a.33.33,0,1,1,.07.65Z" style="fill:#dbdbdb"></path><path d="M315.29,198.87a.32.32,0,0,0-.07.62,4,4,0,0,0,1.81.27.31.31,0,0,0,.24-.15h0a3.87,3.87,0,0,1-1.81-.28.32.32,0,0,1-.17-.43Z" style="fill:#c7c7c7;opacity:0.4"></path><path d="M314.1,199.31a3.87,3.87,0,0,1-1.81-.28.32.32,0,1,1,.26-.59,3.33,3.33,0,0,0,1,.22H314a.33.33,0,0,1,.36.29.33.33,0,0,1-.29.36Z" style="fill:#dbdbdb"></path><path d="M312.36,198.42a.31.31,0,0,0-.24.18.32.32,0,0,0,.17.43,3.87,3.87,0,0,0,1.81.28.31.31,0,0,0,.24-.15h0a4,4,0,0,1-1.82-.28.32.32,0,0,1-.17-.43Z" style="fill:#c7c7c7;opacity:0.4"></path><path d="M311.16,198.85a4,4,0,0,1-1.8-.37.33.33,0,1,1,.3-.58,3.57,3.57,0,0,0,1,.28h.43a.33.33,0,0,1,.35.3.34.34,0,0,1-.31.35Z" style="fill:#dbdbdb"></path><path d="M309.47,197.87a.32.32,0,0,0-.25.17.33.33,0,0,0,.14.44,4,4,0,0,0,1.8.37.34.34,0,0,0,.25-.14h0a3.86,3.86,0,0,1-1.8-.37.33.33,0,0,1-.14-.44S309.46,197.88,309.47,197.87Z" style="fill:#c7c7c7;opacity:0.4"></path><path d="M308.17,198.24a3.8,3.8,0,0,1-1.77-.5.34.34,0,0,1-.11-.45.35.35,0,0,1,.45-.11,3.47,3.47,0,0,0,1,.36l.1,0s.13,0,0,0l.15,0h.14a.33.33,0,0,1,0,.65Z" style="fill:#dbdbdb"></path><path d="M306.55,197.14a.32.32,0,0,0-.26.15.34.34,0,0,0,.11.45,3.8,3.8,0,0,0,1.77.5.28.28,0,0,0,.25-.12h0a4.06,4.06,0,0,1-1.77-.5.34.34,0,0,1-.11-.45Z" style="fill:#c7c7c7;opacity:0.4"></path><path d="M305.26,197.27a4,4,0,0,1-1.66-.77.33.33,0,1,1,.42-.5,3.41,3.41,0,0,0,.94.51l.09,0s.13,0,0,0l.15,0,.13,0a.32.32,0,0,1,.27.37.33.33,0,0,1-.38.27Z" style="fill:#dbdbdb"></path><path d="M303.84,195.93a.31.31,0,0,0-.28.11.33.33,0,0,0,0,.46,4,4,0,0,0,1.66.77.29.29,0,0,0,.27-.08h0a4,4,0,0,1-1.67-.77.33.33,0,0,1,0-.46Z" style="fill:#c7c7c7;opacity:0.4"></path><path d="M302.52,195.65a4,4,0,0,1-1.42-1.16.33.33,0,0,1,.07-.46.34.34,0,0,1,.46.08,3.16,3.16,0,0,0,.78.72l.09.06s.12.07,0,0l.13.08.12.06a.33.33,0,0,1-.26.6Z" style="fill:#dbdbdb"></path><path d="M301.47,194a.36.36,0,0,0-.3,0,.33.33,0,0,0-.07.46,4,4,0,0,0,1.42,1.16.34.34,0,0,0,.28,0h0a4,4,0,0,1-1.43-1.16.34.34,0,0,1,.08-.46Z" style="fill:#c7c7c7;opacity:0.4"></path><path d="M300.37,193.55a3.94,3.94,0,0,1-.95-1.58.33.33,0,0,1,.23-.4.34.34,0,0,1,.4.22,3.57,3.57,0,0,0,.49,1l.06.08s.09.11,0,0l.09.11a.94.94,0,0,0,.1.1.33.33,0,0,1-.45.48Z" style="fill:#dbdbdb"></path><path d="M299.94,191.63a.33.33,0,0,0-.29-.06.33.33,0,0,0-.23.4,3.94,3.94,0,0,0,.95,1.58.33.33,0,0,0,.27.08h0a3.83,3.83,0,0,1-.95-1.58.33.33,0,0,1,.22-.4Z" style="fill:#c7c7c7;opacity:0.4"></path><path d="M299.06,190.84a3.88,3.88,0,0,1-.94-1.57.32.32,0,0,1,.62-.18,3.33,3.33,0,0,0,.5.95l.06.08s.09.11,0,0a.52.52,0,0,1,.1.11l.09.1a.32.32,0,0,1,0,.46.34.34,0,0,1-.47,0Z" style="fill:#dbdbdb"></path><path d="M298.64,188.93a.33.33,0,0,0-.52.34,3.88,3.88,0,0,0,.94,1.57.32.32,0,0,0,.27.09h0a4.06,4.06,0,0,1-.95-1.58.33.33,0,0,1,.23-.4Z" style="fill:#c7c7c7;opacity:0.4"></path><path d="M282.93,171.24,279.18,187h58.39s-8-43.88-18.16-56.28c-6.86-8.39-15.51-8.3-21.32-3.06-1.47,1.33-15.92,19.29-18.16,27.55C278,162.49,282.93,171.24,282.93,171.24Z" style="fill:#ffc4c0"></path><path d="M336.54,176.78l-40.18-3.7-15.6,3.28,2.17-5.12s-4.94-8.75-3-16c2.23-8.26,16.68-26.22,18.15-27.55,5.81-5.25,14.46-5.33,21.32,3.06C326.45,139.3,333.52,163,336.54,176.78Z" style="fill:#00318E"></path><path d="M305.26,168.2a62.42,62.42,0,0,0-9.16.76c-1.5.26-3,.58-4.47.94-.74.18-1.48.33-2.22.48a10,10,0,0,1-2.37.26c-.07,0-.07.1,0,.1a15.23,15.23,0,0,0,2.24.14,14.52,14.52,0,0,0,2.18-.23c1.52-.24,3-.56,4.56-.83,3.08-.53,6.15-1.06,9.26-1.37C305.42,168.44,305.41,168.2,305.26,168.2Z" style="fill:#263238"></path><path d="M312.57,171.5a67.81,67.81,0,0,0-7.52-1c-1.27-.09-2.53-.1-3.79-.08-.61,0-1.21,0-1.82.06s-1.32.15-2,.17a.06.06,0,0,0,0,.11c.62,0,1.25.1,1.88.14l1.89.1c1.26.07,2.52.16,3.78.22,2.53.11,5,.26,7.56.46C312.7,171.72,312.7,171.53,312.57,171.5Z" style="fill:#263238"></path><path d="M297.91,176a2.6,2.6,0,0,1,1.5,1.59,4.4,4.4,0,0,1,.19,2.25,1.78,1.78,0,0,1-.25.59.83.83,0,0,1-.62.36.75.75,0,0,1-.67-.26,1.16,1.16,0,0,1-.26-.58,2.4,2.4,0,0,1,.59-2.1,2.13,2.13,0,0,0-.31,1,2.6,2.6,0,0,0,.08,1c.18.72.88.57.95-.12a4.93,4.93,0,0,0-.1-2,3.15,3.15,0,0,0-.4-.95A2.34,2.34,0,0,0,297.91,176Z" style="fill:#263238"></path><path d="M321.61,130.92c28,23.23,38.15,40.12,39.82,47.65,1.37,6.17,1,32.29-.75,39.6-.87,3.52-31.15-6-30.32-9.83.45-2,1.93-24.31,1.86-26.79-.05-1.65-13.86-29.33-19.69-42.6C308.46,129.68,311.61,122.63,321.61,130.92Z" style="fill:#ffc4c0"></path><path d="M332,187a38.34,38.34,0,0,1-.14-5.46l0,.16a38.19,38.19,0,0,1-1.95-5.66,37.69,37.69,0,0,1,2.63,5.38l0,.07v.08A36.82,36.82,0,0,1,332,187Z" style="fill:#263238"></path><path d="M349.11,153l-26.93,8.53s-8.6-15.8-11.13-26.53c-1.93-8.19,2.52-9.88,7.31-7C334.32,137.55,349.11,153,349.11,153Z" style="fill:#00318E"></path><path d="M321.73,156.87a188.24,188.24,0,0,1,22.75-7.34s.1.16.06.18c-6.09,2.35-18.54,6.16-22.72,7.41C321.74,157.14,321.66,156.9,321.73,156.87Z" style="fill:#263238"></path><path d="M321.91,161.67c-1.1-2-2-4.16-3-6.26-.39-.53-.78-1.06-1.13-1.62a13.73,13.73,0,0,1-1.19-2.24s0-.07.06,0c.22.34.4.71.61,1.07s.43.69.65,1,.44.72.68,1.07c-.93-2.06-1.8-4.15-2.58-6.26,0-.06.06-.11.09-.05,1.17,2.11,2.25,4.27,3.26,6.46s2,4.27,2.86,6.46c.38-.09.76-.19,1.15-.25a.09.09,0,0,1,.06.17c-.41.2-.82.37-1.24.54A.22.22,0,0,1,321.91,161.67Z" style="fill:#263238"></path><path d="M326.73,231.4c-.15-2.14-1.27-2.08-3.42,1.08s-8,17.46-12.8,15,3.7-22.53,7.68-27.51,12.17-11.64,12.17-11.64C329.48,212.58,328.34,223.07,326.73,231.4Z" style="fill:#ffc4c0"></path><path d="M314.62,239.28c-.81-.25-19.74-6.13-23-9.58-3.75-4-10.67-17.22,5.8-54.43,2.89-6.53,2.36-13.63,1.84-20.49-.6-8-1.16-15.51,4.42-20.09a17.68,17.68,0,0,1,4.27-2.58c2.1-1,3.91-1.82,6.69-5.8,3-4.35.61-17.65.58-17.78l.49-.09c.11.55,2.48,13.64-.66,18.15-2.86,4.1-4.81,5-6.89,6a17.33,17.33,0,0,0-4.16,2.51c-5.39,4.42-4.85,11.49-4.24,19.67.52,6.92,1.06,14.08-1.88,20.74-16.81,38-8.77,50.84-5.9,53.88,3.16,3.36,22.58,9.38,22.78,9.44Z" style="fill:#263238"></path><path d="M299.57,144.17l-.49-.1c1.14-5.85-3.43-10-7.47-13.59-2.73-2.46-5.32-4.79-5.64-7.31a95.21,95.21,0,0,1-.54-15.34l.5,0a94.1,94.1,0,0,0,.54,15.25c.29,2.34,2.81,4.6,5.48,7C296.08,133.82,300.77,138,299.57,144.17Z" style="fill:#263238"></path><path d="M348.25,240.07l-36.34-14.62c-1-.53-2.12-.26-2.42.59l-5.37,15.2a2.23,2.23,0,0,0,1.33,2.49l36.33,14.62c1,.53,2.12.27,2.42-.58l5.37-15.2A2.25,2.25,0,0,0,348.25,240.07Z" style="fill:#a6a6a6"></path><path d="M347.63,241.88l-36.34-14.62c-1-.53-2.11-.27-2.41.58l-5.38,15.21a2.24,2.24,0,0,0,1.33,2.49l36.34,14.62c1,.53,2.11.27,2.41-.58l5.38-15.2A2.25,2.25,0,0,0,347.63,241.88Z" style="fill:#c7c7c7"></path><path d="M344.38,245.72c-.94-.19-1.48-.92-1.21-1.63a1.94,1.94,0,0,1,2.19-.94c.94.19,1.48.92,1.21,1.63A1.94,1.94,0,0,1,344.38,245.72Z" style="fill:#263238"></path><rect x="297.75" y="233.41" width="8.48" height="2.42" transform="translate(91.49 -84.65) rotate(18.76)" style="fill:#00318E"></rect><path d="M360.68,218.17c-1.92,13-5.8,26.78-15.4,36.64a6.83,6.83,0,0,1-3.94,2.1c-4.22,4.5-7.61,3.85-7.61,3.85-5.22,3-8.6,1.85-8.6,1.85s-3.83,3.19-6.26.67,2-9.64,4-16c4.67-14.61,6.57-34.58,7.5-38.93Z" style="fill:#ffc4c0"></path><path d="M337.87,237.49A98.67,98.67,0,0,1,333.06,250a99.29,99.29,0,0,1-7.95,12.4.12.12,0,0,0,.18.15,52.12,52.12,0,0,0,12.77-25C338.11,237.34,337.94,237.27,337.87,237.49Z" style="fill:#263238"></path><path d="M347.09,239c-1.65,4.08-4.59,11.22-13.48,21.65,0,0,0,.09.06.06a46.81,46.81,0,0,0,13.62-21.63C347.37,238.84,347.2,238.75,347.09,239Z" style="fill:#263238"></path><path d="M352,239.94c-3.06,6.82-5.86,10.74-10.69,16.93,0,0,0,.09.06.05,6.22-6.45,7.75-9.5,10.88-16.91C352.39,239.76,352.15,239.67,352,239.94Z" style="fill:#263238"></path><path d="M295.16,102.5c-.33,4.21-3.58,7.39-7.28,7.1s-6.42-3.92-6.1-8.13,3.59-7.39,7.28-7.11S295.48,98.29,295.16,102.5Z" style="fill:#455a64"></path><path d="M297.3,102.93c-.36,4.68-4,8.22-8.09,7.91s-7.14-4.37-6.78-9.06,4-8.22,8.09-7.9S297.66,98.25,297.3,102.93Z" style="fill:#c7c7c7"></path><path d="M310.14,126c-.41,1.6-4.8,8.64-9.72,8.1-2.53-.28-1.9-9.17-1.9-9.17l-.07-.66L297.4,115l13-6.42S310.26,125.5,310.14,126Z" style="fill:#ffc4c0"></path><path d="M310.34,114.87a18.72,18.72,0,0,1-11.9,9.36L297.39,115l13-6.42S310.39,111.43,310.34,114.87Z" style="fill:#263238"></path><path d="M285.64,100c-2.67,16.16,6.71,19.59,10.19,20.16,3.17.52,14,1.89,18.34-13.91s-2.35-22.15-9.52-23.72S288.31,83.79,285.64,100Z" style="fill:#ffc4c0"></path><path d="M313.29,105.68c-3.08.2-3.45-6.84-3.45-6.84S297,95.86,296.5,85.2a17.94,17.94,0,0,1-9.63,9.27S288,82.89,297.36,81.18c0,0,11.67-3.48,17.55,6S315.35,105.54,313.29,105.68Z" style="fill:#263238"></path><path d="M296.5,84.42a11.65,11.65,0,0,0,.29,4.87,11.66,11.66,0,0,0,3,5.35l.42.45.48.4c.32.26.63.54,1,.78s.7.44,1.06.65l.53.32.56.25,1.11.51c.78.27,1.56.49,2.34.7-.73-.37-1.48-.66-2.19-1l-1-.59-.53-.29-.48-.35-1-.69c-.31-.24-.59-.52-.89-.78l-.44-.39-.4-.43a11.06,11.06,0,0,1-.77-.9,13.78,13.78,0,0,1-2.24-4.13,15,15,0,0,1-.59-2.31A14.56,14.56,0,0,1,296.5,84.42Z" style="fill:#263238"></path><path d="M311.39,105s4-4.82,6.18-3.37-1,8.63-3.84,9.43a2.77,2.77,0,0,1-3.58-1.77Z" style="fill:#ffc4c0"></path><path d="M316.58,103.61c.05,0,.05.06,0,.08-2,.62-3.1,2.31-3.95,4.09a1.53,1.53,0,0,1,2.32-.24s0,.11-.06.09a1.73,1.73,0,0,0-1.92.45,8.64,8.64,0,0,0-1,1.44c-.1.17-.4,0-.32-.14l0,0C311.81,106.91,314,103.66,316.58,103.61Z" style="fill:#263238"></path><path d="M313.47,110.38a.7.7,0,1,1-.43-.9A.7.7,0,0,1,313.47,110.38Z" style="fill:#455a64"></path><path d="M313.12,110.26a.33.33,0,0,1-.42.2.32.32,0,0,1-.2-.43.33.33,0,0,1,.42-.2A.34.34,0,0,1,313.12,110.26Z" style="fill:#263238"></path><path d="M314.76,109.62a.49.49,0,1,1-.93-.33.49.49,0,0,1,.93.33Z" style="fill:#455a64"></path><path d="M303.29,105.05a6,6,0,0,0-2.73.22,4.64,4.64,0,0,0-2.27,1.64,4.73,4.73,0,0,0-.87,2.68,4.32,4.32,0,0,0,.85,2.62,6.52,6.52,0,0,1-.35-2.6,5,5,0,0,1,.81-2.39,4.5,4.5,0,0,1,2-1.6A7.24,7.24,0,0,1,303.29,105.05Z" style="fill:#263238"></path><path d="M290.63,96.32a8.47,8.47,0,0,0,1.13-.09,1.85,1.85,0,0,0,1.15-.3.6.6,0,0,0,.09-.72,1.44,1.44,0,0,0-1.38-.52,2.12,2.12,0,0,0-1.43.57A.63.63,0,0,0,290.63,96.32Z" style="fill:#263238"></path><path d="M302.23,97.77a8,8,0,0,1-1.07-.38,1.83,1.83,0,0,1-1-.6.59.59,0,0,1,.1-.71,1.44,1.44,0,0,1,1.47-.14,2.13,2.13,0,0,1,1.23.93A.62.62,0,0,1,302.23,97.77Z" style="fill:#263238"></path><path d="M298.85,101.77s.08.07.07.11c-.21,1.11-.26,2.41.69,2.94,0,0,0,.07,0,.06C298.39,104.51,298.48,102.78,298.85,101.77Z" style="fill:#263238"></path><path d="M300,100.76c1.81.15,1.38,3.76-.29,3.62S298.51,100.64,300,100.76Z" style="fill:#263238"></path><path d="M300.72,101c.29.24.55.64.93.72s.81-.24,1.14-.57c0,0,.06,0,.06,0-.07.69-.42,1.37-1.18,1.38s-1.1-.65-1.19-1.37C300.47,101.12,300.6,100.94,300.72,101Z" style="fill:#263238"></path><path d="M288.64,99.81a3.69,3.69,0,0,1,.94,0,3.57,3.57,0,0,1,.93.25,2.34,2.34,0,0,1,1.35,1.46l.19.61-.61-.19a6.54,6.54,0,0,0-1.33-.27,2.86,2.86,0,0,0-1.37.19,2,2,0,0,1,1.35-.68,3.88,3.88,0,0,1,1.55.13l-.42.41a2.31,2.31,0,0,0-1-1.17A7.11,7.11,0,0,0,288.64,99.81Z" style="fill:#263238"></path><path d="M289.93,102.64a5.94,5.94,0,0,0,1.45-.24c.11,0,.54-.25.54-.33a2.68,2.68,0,0,0-.11-.72,1.81,1.81,0,0,1,.25.73,1,1,0,0,1-.61.53A3,3,0,0,1,289.93,102.64Z" style="fill:#263238"></path><path d="M294,111.08c-.29.24-.57.59-1,.6a3,3,0,0,1-1.2-.34,0,0,0,0,0,0,0,1.53,1.53,0,0,0,1.4.69,1.2,1.2,0,0,0,.93-1C294.14,111.07,294.06,111,294,111.08Z" style="fill:#263238"></path><path d="M290.87,106c-.12.44,1.89,0,2.22-.08l.5-.71a6.76,6.76,0,0,0-1.84.21c.77-3.45,2.09-6.75,2.81-10.2a.11.11,0,0,0-.21-.06A57.74,57.74,0,0,0,290.87,106Z" style="fill:#263238"></path><path d="M293.59,105.2a4.13,4.13,0,0,1-2.19,1.41c-.39,0-1.37,0-1.39.87s1.26,1.16,1.81,1.33l-.14-.42a1.72,1.72,0,0,0-.34.88.7.7,0,0,0,.77.72c.68-.15.94-.65,1.39-.93a3.29,3.29,0,0,0-.76.28,1.3,1.3,0,0,1-.66.21c-.16,0-.25-.11-.23-.26a1.38,1.38,0,0,1,.25-.58l.21-.3a4.59,4.59,0,0,1-1.22-.35c-.39-.2-.75-.47-.57-.77s.92,0,1.58-.35A3,3,0,0,0,293.59,105.2Z" style="fill:#263238"></path><g style="opacity:0.8"><path d="M291.81,110.8a5.27,5.27,0,0,1,0,.68,6.14,6.14,0,1,1-1.39-3.9h0a3.77,3.77,0,0,0,1.44.74l.23.56a4.22,4.22,0,0,0-.32,1.88Z" style="fill:#ff9bbc"></path><path d="M281.9,113.84a3.76,3.76,0,0,1-.79-3.92,4.14,4.14,0,0,1,1.25-1.71,5.94,5.94,0,0,1,.85-.56,6.81,6.81,0,0,1,1-.33c-.21.27-.45.49-.66.72s-.42.47-.6.72a6.18,6.18,0,0,0-.86,1.51,4.74,4.74,0,0,0-.32,1.69A8.88,8.88,0,0,0,281.9,113.84Z" style="fill:#fff"></path></g><path d="M314.34,102.24s1.73-9.07-.33-14.44c-2.29-6-11.75-8.82-16.57-6.66,0,0,7.45-2,12.9,6.62,2.3,3.61.91,14.35.91,14.35Z" style="fill:#c7c7c7"></path><path d="M305.2,105.82c-.62,4.65,2.19,8.87,6.28,9.41s7.9-2.79,8.51-7.45-2.19-8.87-6.27-9.41S305.82,101.16,305.2,105.82Z" style="fill:#c7c7c7"></path><path d="M307.39,105.84c-.55,4.18,2,8,5.64,8.46s7.1-2.51,7.66-6.69-2-8-5.64-8.47S308,101.65,307.39,105.84Z" style="fill:#455a64"></path><path d="M311,106.4a4.16,4.16,0,1,0,4.7-4.12A4.43,4.43,0,0,0,311,106.4Z" style="fill:#37474f"></path><path d="M282.7,211c.47,4.13-27.91,19-30.65,13.55C242,204.43,238.81,181.46,240.31,176a11.24,11.24,0,0,1,17.14-6C266.9,176.29,282.24,206.92,282.7,211Z" style="fill:#ffc4c0"></path><path d="M263.89,176c8.72,9.21,15.28,25.74,15.29,25.77.14.2-.1.44-.17.33-1.39-2.05-9.71-18.5-15.35-25.83C263.61,176.16,263.83,175.9,263.89,176Z" style="fill:#263238"></path><path d="M281.58,209.62S298.2,229.7,300.78,240c1.29,5.18,3.06,27.69-2.38,28.25-4.93.51-4.33-7.16-4.33-7.16s.13,8.44-4.91,7.44-3.33-10.91-3.33-10.91.75,8.95-4.53,7.37c-4.58-1.37-3.8-13-3.8-13s1.83,9.31-3,8.36c-5.34-1-6.35-18.63-6.35-18.63-11.23-5.29-14.19-9.52-16.19-17.63C251.62,222.79,281.58,209.62,281.58,209.62Z" style="fill:#ffc4c0"></path><path d="M285.75,260.36c.1-.78.19-1.57.29-2.36a39.13,39.13,0,0,0,.41-4.59c0-1.51,0-3-.12-4.5s-.36-3.17-.42-4.75a.09.09,0,1,0-.18,0,43.35,43.35,0,0,1,0,4.7c-.05,1.53-.12,3.07-.18,4.6s0,3-.06,4.5c0,.75-.05,1.49-.1,2.24a12.69,12.69,0,0,0-.08,2.13.07.07,0,0,0,.13,0A10.11,10.11,0,0,0,285.75,260.36Z" style="fill:#263238"></path><path d="M294.07,262.89a61.18,61.18,0,0,0,.94-8.52,42.43,42.43,0,0,0-.6-8.57.09.09,0,0,0-.17,0c-.09,2.86-.14,5.74-.19,8.61,0,1.4-.34,7.77-.28,8.44C293.78,263,294,263,294.07,262.89Z" style="fill:#263238"></path><path d="M277.87,258.19a61.42,61.42,0,0,0,.75-8,55.62,55.62,0,0,0-1.14-8.17c0-.1-.18-.09-.18,0,.17,2.74.39,5.47.43,8.21,0,1.34-.21,6.68-.08,8C277.66,258.29,277.84,258.3,277.87,258.19Z" style="fill:#263238"></path></g><g id="freepik--Backpack--inject-166"><path d="M375.5,349.82c.59-.59-2.77-9.2-5.21-10.58s-17-.33-18.49,2.6,1.55,11.65,2.61,11.73,3.83-.41,4.32-1.06-1.57-6.12-.84-7.18c1-1.41,9.22-2,10.08-1.17s2.14,5.68,2.32,6S374.54,350.78,375.5,349.82Z" style="fill:#00318E"></path><path d="M339.43,432.4c3.58,5.86,15,13,21.5,13.68s49.5,3.25,55.7-6.2c5.63-8.6-10.68-66-24.17-83.66a19.32,19.32,0,0,0-3.58-3.74c-.09-.08-.18-.14-.27-.21-12.21-8.64-34.8-1.91-37.62-.9-4.4,1.59-10.43,5.94-13,14.74S335.84,426.54,339.43,432.4Z" style="fill:#37474f"></path><path d="M363.37,426.85c1,4.24,8.47,13.86,16.61,15.81s36.65-2.77,42.66-8.87a6.43,6.43,0,0,0,1.25-3.83c1.19-13-9.7-51.52-19.68-62.7a10.55,10.55,0,0,0-3.22-2.62,25.24,25.24,0,0,0-4.32-1.56,48.64,48.64,0,0,0-25.1.71c-4.91,1.55-8.84,4-10.48,7.21C356.9,379.21,362.39,422.62,363.37,426.85Z" style="fill:#00318E"></path><path d="M363.37,426.85c1,4.24,8.47,13.86,16.61,15.81s36.65-2.77,42.66-8.87a6.43,6.43,0,0,0,1.25-3.83,39.3,39.3,0,0,1-16.38,6.42,72,72,0,0,1-12.87.9c-4.27-.07-8.68-.65-12.36-3.07-6.95-4.54-9.93-13.95-11.41-21.9-1.61-8.67-1.7-17.69-1.59-26.48a105,105,0,0,1,2.29-22c-4.91,1.55-8.84,4-10.48,7.21C356.9,379.21,362.39,422.62,363.37,426.85Z" style="opacity:0.1"></path><path d="M367.48,409.27l1.95-.25c-1.15-9-3.24-33.4.89-38.47s21-6.87,28.2-5.16a34.42,34.42,0,0,1,5.69,1.87,10.67,10.67,0,0,0-3.22-2.62,25.59,25.59,0,0,0-4.33-1.56C388,362,373,364.19,368.79,369.32,363.3,376.06,367.32,407.92,367.48,409.27Z" style="fill:#263238"></path><path d="M343.9,403.2l2-.08c-1.31-36.39.31-37.84,7.13-44l.24-.22c6.64-6,23.31-6.43,29.9-5.73a23.68,23.68,0,0,1,9.33,3,19.32,19.32,0,0,0-3.58-3.74,26,26,0,0,0-5.54-1.23c-4.62-.49-23.51-.88-31.41,6.24l-.24.2C344.49,364.15,342.56,365.89,343.9,403.2Z" style="fill:#263238"></path><path d="M334.13,431.68c1.4,4.66,13.13,13.32,18.73,15,1.13.34,10.48,1.57,10.64-2.17,0-.25,0-.5,0-.76.1-9.77-5.39-30.58-6.57-33.35-1.39-3.27-12.25-8.87-18.56-9.74a6.72,6.72,0,0,0-3.35.17C330.59,402.68,333.25,428.73,334.13,431.68Z" style="fill:#455a64"></path><path d="M334.13,431.68c1.4,4.66,13.13,13.32,18.73,15,1.13.34,10.48,1.57,10.64-2.17,0-.25,0-.5,0-.76-6.83-.09-16.49-2.51-21.1-10.22-4.35-7.26-4.5-23.66-4-32.87a6.72,6.72,0,0,0-3.35.17C330.59,402.68,333.25,428.73,334.13,431.68Z" style="fill:#37474f"></path></g></svg>